<svg xmlns="http://www.w3.org/2000/svg" width="128" height="128" data-name="Layer 1" viewBox="0 0 128 128"><path fill="#81d9e3" d="M74.94857,39.07444s-13.33333-19.66667-37.66667-5c0,0-10.33333,6.66667-10,23,0,0-27.16667,6-25.16667,27.16667,2.91572,30.85807,28.16667,26.5,42.33333,26.16667s59,0,59,0,33.32354-8.61347,17.66177-42.14007S74.94857,39.07444,74.94857,39.07444Z"/><circle cx="102.115" cy="45.074" r="23.875" fill="#ffdb80"/><path fill="#0f423c" d="M52.99119 48.0732a9.52 9.52 0 0 1 6.8233 1.7583 2 2 0 1 0 2.371-3.2216 13.49165 13.49165 0 0 0-9.6801-2.5074 13.057 13.057 0 0 0-11.149 9.6094 12.11438 12.11438 0 0 0-.2456 4.5557A1.99989 1.99989 0 0 0 43.09029 60a2.03115 2.03115 0 0 0 .2701-.0181 1.99936 1.99936 0 0 0 1.7143-2.2495 8.13811 8.13811 0 0 1 .1641-3.0571A9.03536 9.03536 0 0 1 52.99119 48.0732zM103.34959 96.1084a2.00029 2.00029 0 1 0 1.3008 3.7832 13.997 13.997 0 0 0 7.1885-5.7842c2.78411-4.3891 2.9052-9.5952.3095-13.2632a2.00048 2.00048 0 0 0-3.2656 2.3116c1.6299 2.3017 1.461 5.8422-.4219 8.8095A9.98461 9.98461 0 0 1 103.34959 96.1084z" opacity=".3"/><path fill="#bddee0" d="M73.78,38.83a29.60482,29.60482,0,0,0-1.23,4.46A24.99692,24.99692,0,0,0,28.97,59.27l-.11,3.36-3.34.47A25.1359,25.1359,0,0,0,4.09,85.94C4.03,85.28,4,84.6,4,83.92A25.14791,25.14791,0,0,1,25.52,59.1l3.34-.47.11-3.36A24.92372,24.92372,0,0,1,52.52,31.04c.48-.03.97-.04,1.46-.04a24.98916,24.98916,0,0,1,18.57,8.29c.09-.44.18-.88.29-1.31C73.16,38.26,73.47,38.54,73.78,38.83Z" opacity=".5"/><path fill="#f9edd2" d="M124,45c0,.68-.03,1.34-.09,2A22.00117,22.00117,0,0,0,80.09,47c-.06-.66-.09-1.32-.09-2a22.02611,22.02611,0,0,1,20.87-21.97c.37-.02.75-.03,1.13-.03s.76.01,1.13.03A22.02611,22.02611,0,0,1,124,45Z" opacity=".5"/><path fill="#0f423c" d="M124,83.92a25.08648,25.08648,0,0,1-23.65,25.04c-.45.03-.92.04-1.38.04H29.04c-.46,0-.93-.01-1.38-.04A25.08784,25.08784,0,0,1,4,83.92q0-.99.09-1.98A25.071,25.071,0,0,0,29.04,105H98.97a25.08343,25.08343,0,0,0,24.95-23.1C123.97,82.57,124,83.24,124,83.92Z" opacity=".3"/><path fill="#937d4a" d="M124,45a22.02611,22.02611,0,0,1-20.87,21.97c-.38.02-.75.03-1.13.03s-.75-.01-1.13-.03A22.02611,22.02611,0,0,1,80,45c0-.68.03-1.34.09-2A22.00117,22.00117,0,0,0,123.91,43C123.97,43.66,124,44.32,124,45Z" opacity=".5"/><path fill="#2d4356" d="M119.37009,69.4365A25.0531,25.0531,0,0,1,98.96579,109H29.03519a25.07577,25.07577,0,0,1-3.5098-49.8989l3.334-.4683.1074-3.3657a25.00359,25.00359,0,0,1,43.5859-15.981,29.64832,29.64832,0,0,1,1.2266-4.4609,29.00615,29.00615,0,0,0-48.8105,20.3149A29.07572,29.07572,0,0,0,29.03519,113h69.9306a29.05968,29.05968,0,0,0,23.5108-46.104A30.18131,30.18131,0,0,1,119.37009,69.4365Z"/><path fill="#2d4356" d="M102,71A26,26,0,1,0,76,45,26.00129,26.00129,0,0,0,102,71Zm0-48A22,22,0,1,1,80,45,22.02485,22.02485,0,0,1,102,23Z"/><path fill="#2d4356" d="M94.58589 52.4141a1.99945 1.99945 0 0 0 2.8282 0L102 47.8281l4.58589 4.586a1.99984 1.99984 0 0 0 2.8282-2.8282L104.82809 45l4.586-4.5859a1.99984 1.99984 0 0 0-2.8282-2.8282L102 42.1719l-4.58591-4.586a1.99984 1.99984 0 0 0-2.8282 2.8282L99.17189 45l-4.586 4.5859A1.99945 1.99945 0 0 0 94.58589 52.4141zM52.99119 46.0732a9.508 9.508 0 0 1 6.8233 1.7583 2 2 0 1 0 2.371-3.2216 13.47746 13.47746 0 0 0-9.6796-2.5074 13.05705 13.05705 0 0 0-11.1495 9.6094 12.1227 12.1227 0 0 0-.246 4.5557A2.00047 2.00047 0 0 0 43.08979 58a2.02743 2.02743 0 0 0 .2706-.0181 2.00008 2.00008 0 0 0 1.7148-2.2495 8.10715 8.10715 0 0 1 .1641-3.0571A9.03473 9.03473 0 0 1 52.99119 46.0732zM104 98.0005a2.00042 2.00042 0 0 1-.65041-3.8921 9.98461 9.98461 0 0 0 5.1113-4.1431c1.8829-2.9673 2.0518-6.5078.4219-8.8095a2.00048 2.00048 0 0 1 3.2656-2.3116c2.5957 3.668 2.47461 8.8741-.3095 13.2632a13.997 13.997 0 0 1-7.1885 5.7842A2.0075 2.0075 0 0 1 104 98.0005z"/></svg>