<svg xmlns="http://www.w3.org/2000/svg" enable-background="new 0 0 512 512" viewBox="0 0 512 512"><path fill="#008adf" d="M501 146.5v219c0 13.8-6.14 26.16-15.85 34.5L307.34 261.35l177.83-149.33C494.87 120.35 501 132.71 501 146.5zM202.673 261.35L26.85 400C17.14 391.66 11 379.3 11 365.5v-219c0-13.79 6.13-26.15 15.83-34.48L202.673 261.35z"/><path fill="#0074df" d="M321.41,261.35L485.15,400c-7.96,6.86-18.32,11-29.65,11h-399c-11.33,0-21.69-4.14-29.65-11l163.74-138.65L256,309L321.41,261.35z"/><path fill="#27b2eb" d="M485.17,112.02C474.224,122.002,267.21,310.778,256,321C244.786,310.774,37.773,121.999,26.83,112.02C34.79,105.15,45.16,101,56.5,101h399C466.84,101,477.21,105.15,485.17,112.02z"/></svg>