<svg xmlns="http://www.w3.org/2000/svg" enable-background="new 0 0 100 100" viewBox="0 0 100 100"><polygon fill="#0061cd" points="22.879 20.008 29.646 16.076 29.517 61.637 22.75 65.569"/><polygon fill="#cdcdcd" points="29.464 51.467 36.23 47.534 38.091 50.549 31.325 54.481"/><polygon fill="#cdcdcd" points="29.433 57.957 36.199 54.025 36.963 56.236 30.198 60.168"/><path fill="#cdcdcd" d="M36.39,52.819c-0.305,0.17-0.38,0.659-0.191,1.205c-1.128,0.656-2.256,1.311-3.383,1.966
					c-0.864,0.502-1.729,1.005-2.593,1.507l-0.79,0.459c-0.189-0.546-0.114-1.036,0.191-1.206
					C31.653,55.572,34.36,53.999,36.39,52.819z"/><polygon fill="#cd8600" points="29.624 56.751 36.39 52.819 38.087 51.852 31.321 55.784"/><polygon fill="#cdcdcd" points="31.325 54.481 38.091 50.549 38.087 51.852 31.321 55.784"/><polygon fill="#cd8600" points="31.263 51.295 38.029 47.364 39.75 50.156 32.984 54.087"/><path fill="#cdcdcd" d="M36.189,57.564c-0.204,0.345-0.107,0.965,0.229,1.501c-1.128,0.655-2.256,1.31-3.383,1.966
					c-0.332,0.192-0.663,0.385-0.995,0.578c-0.532,0.309-1.065,0.619-1.597,0.928l-0.79,0.459c-0.337-0.536-0.433-1.156-0.229-1.501
					C31.453,60.316,34.16,58.743,36.189,57.564z"/><polygon fill="#cd8600" points="31.537 62.945 38.303 59.013 40.772 62.936 34.006 66.868"/><polygon fill="#cdcdcd" points="30.198 60.168 36.963 56.236 36.189 57.564 29.423 61.496"/><polygon fill="#cd8600" points="32.191 61.831 38.957 57.899 38.303 59.013 31.537 62.945"/><path fill="#cd8600" d="M32.194,60.813l6.766-3.932c0.14,0.402,0.139,0.778-0.003,1.018l-6.766,3.932
					C32.333,61.592,32.334,61.215,32.194,60.813z"/><polygon fill="#cd8600" points="31.527 58.88 38.293 54.948 38.96 56.882 32.194 60.813"/><polygon fill="#cdc678" points="31.527 58.88 38.293 54.948 39.775 54.103 33.009 58.035"/><path fill="#cd8600" d="M39.784,54.098l-6.766,3.932c0.182-0.106,0.284-0.335,0.285-0.63l6.766-3.932
					C40.068,53.763,39.966,53.992,39.784,54.098z"/><path fill="#cdc678" d="M39.775,54.103c0.003-0.001,0.006-0.003,0.009-0.005l-6.766,3.932
					c-0.003,0.002-0.006,0.003-0.009,0.005C35.039,56.856,37.732,55.26,39.775,54.103z"/><path fill="#cdcdcd" d="M36.23,47.534c-0.98,0.569-1.96,1.139-2.94,1.708c-0.589,0.342-1.178,0.684-1.767,1.027
					c-0.686,0.399-1.373,0.798-2.06,1.197c-0.281-0.459-0.39-0.98-0.278-1.339l6.766-3.932C35.84,46.554,35.949,47.076,36.23,47.534
					z"/><polygon fill="#cd8600" points="33.309 55.122 40.075 51.19 40.068 53.468 33.303 57.4"/><path fill="#cd8600" d="M32.984,54.087l6.766-3.932c0.208,0.335,0.326,0.71,0.325,1.034l-6.766,3.932
					C33.31,54.798,33.191,54.423,32.984,54.087z"/><polygon fill="#cdcdcd" points="30.294 46.588 37.06 42.656 35.951 46.196 29.185 50.127"/><polygon fill="#cd8600" points="32.291 48.02 39.057 44.088 38.029 47.364 31.263 51.295"/><polygon fill="#cdc678" points="35.318 46.956 42.084 43.024 42.033 61.142 35.267 65.074"/><path fill="#cdcdcd" d="M41.176,66.072c-2.256,1.31-4.511,2.621-6.766,3.932c-0.051-0.02-0.101-0.043-0.152-0.072
					c-0.239-0.138-0.468-0.37-0.652-0.659l6.766-3.932c0.183,0.289,0.413,0.52,0.652,0.659
					C41.075,66.028,41.125,66.051,41.176,66.072z"/><polygon fill="#cd8600" points="37.115 67.013 43.881 63.081 41.888 65.922 35.121 69.854"/><path fill="#cdcdcd" d="M41.331,66.119c-2.256,1.31-4.511,2.621-6.766,3.932c-0.046-0.009-0.093-0.023-0.141-0.041
					c-0.005-0.002-0.01-0.004-0.014-0.006c2.255-1.31,4.511-2.621,6.766-3.932c0.004,0.002,0.009,0.003,0.014,0.005
					C41.238,66.095,41.285,66.109,41.331,66.119z"/><polygon fill="#cdc678" points="35.267 65.074 42.033 61.142 40.772 62.936 34.006 66.868"/><polygon fill="#cd8600" points="37.296 48.8 44.062 44.868 44.012 62.588 37.246 66.52"/><path fill="#cdcdcd" d="M44.062,44.868c0.711-0.041,1.354-0.232,1.914-0.558l-6.766,3.932
					c-0.56,0.325-1.202,0.516-1.914,0.558C39.326,47.62,41.814,45.544,44.062,44.868z"/><polygon fill="#cdcdcd" points="29.79 44.833 36.556 40.901 37.06 42.656 30.294 46.588"/><path fill="#cdcdcd" d="M31.591,29.178c-0.011,3.807,1.968,8.445,4.964,11.723l-6.766,3.932
					c-1.498-1.639-2.742-3.618-3.61-5.664c2.255-1.31,4.51-2.621,6.765-3.932c-2.255,1.31-4.51,2.621-6.765,3.931c0,0,0,0,0,0
					c-0.868-2.045-1.36-4.156-1.355-6.059c0,0,0,0,0,0c0,0,0,0,0,0l0,0c0.073-0.042,0.169-0.098,0.241-0.14
					c0.15-0.087,0.349-0.202,0.498-0.289c0.44-0.256,0.88-0.512,1.32-0.768C28.454,31,30.022,30.089,31.591,29.178
					c-2.255,1.31-4.511,2.621-6.766,3.932c0.008-2.651,0.947-4.518,2.461-5.397l6.766-3.932
					C32.539,24.659,31.599,26.526,31.591,29.178z"/><path fill="#cd8600" d="M36.403 39.528c-.135.153-.411.239-.588.342-.637.37-1.273.74-1.91 1.11-.88.512-1.76 1.023-2.641 1.535-.542.315-1.085.631-1.628.946.051-.122.128-.209.221-.263l6.766-3.932C36.531 39.32 36.454 39.408 36.403 39.528zM32.266 47.25l6.766-3.932c.082.287.094.559.025.77l-6.766 3.932C32.36 47.808 32.348 47.537 32.266 47.25z"/><path fill="#cd8600" d="M38.957,43.055c-0.237,0.138-0.553,0.322-0.791,0.459c-0.251,0.146-0.587,0.341-0.838,0.487
					c-0.13,0.075-0.302,0.175-0.431,0.251c-1.569,0.912-3.137,1.823-4.706,2.735c-0.686-0.492-1.354-1.068-1.994-1.726l0,0
					c0,0,0,0,0,0l0,0c0.686-0.399,1.373-0.798,2.06-1.197c1.568-0.911,3.137-1.823,4.705-2.734c-2.255,1.31-4.511,2.621-6.766,3.932
					c-0.511-0.524-0.76-1.332-0.56-1.801c2.256-1.31,4.51-2.621,6.766-3.932c0,0,0,0,0,0c-0.201,0.469,0.049,1.276,0.56,1.801
					C37.603,41.987,38.27,42.564,38.957,43.055z"/><polygon fill="#cd8600" points="32.191 46.987 38.957 43.055 39.032 43.318 32.266 47.25"/><path fill="#cd8600" d="M29.858,43.198l6.766-3.932c0.186-0.108,0.439-0.084,0.703,0.068l-6.766,3.932
					C30.297,43.115,30.044,43.09,29.858,43.198z"/><path fill="#cdc678" d="M39.992,43.724c0.273,0.157,0.52,0.174,0.7,0.071c-2.256,1.311-4.51,2.621-6.766,3.932
					c-0.18,0.102-0.428,0.086-0.7-0.072c-0.349-0.202-0.694-0.425-1.035-0.669l6.766-3.932
					C39.297,43.299,39.643,43.523,39.992,43.724z"/><path fill="#cd8600" d="M40.697,43.793l-6.766,3.932c0.177-0.103,0.288-0.322,0.288-0.635
					c0.001-0.631-0.441-1.394-0.987-1.709c-0.79-0.456-1.55-1.054-2.269-1.784c-0.014-0.015-0.029-0.03-0.044-0.045
					c-0.119-0.121-0.24-0.217-0.36-0.286l6.766-3.932c0.119,0.069,0.241,0.165,0.36,0.286c0.014,0.015,0.029,0.03,0.044,0.045
					c0.718,0.73,1.478,1.328,2.268,1.784c0.546,0.315,0.988,1.078,0.987,1.709C40.984,43.471,40.874,43.69,40.697,43.793z"/><path fill="#cdc678" d="M40.692,43.796c0.002-0.001,0.003-0.001,0.004-0.002l-6.766,3.932
					c-0.001,0.001-0.003,0.002-0.004,0.003c1.128-0.656,2.255-1.311,3.383-1.966C38.437,45.107,39.561,44.445,40.692,43.796z"/><path fill="#cdc678" d="M42.375,42.386c-0.182,0.106-0.289,0.331-0.29,0.638l-6.766,3.932
					c0.001-0.307,0.109-0.533,0.29-0.638C37.639,45.138,40.345,43.565,42.375,42.386z"/><path fill="#cd8600" d="M35.609,46.318l6.766-3.932c0.083-0.048,0.181-0.071,0.292-0.066l-6.766,3.932
					C35.79,46.246,35.692,46.27,35.609,46.318z"/><path fill="#cd8600" d="M44.574 41.893l-6.766 3.932c-.542.315-1.185.466-1.908.427l6.766-3.932C43.389 42.358 44.032 42.207 44.574 41.893zM28.689 30.128l6.766-3.932c-1.157.673-1.875 2.1-1.881 4.127-.009 3.043 1.644 6.78 4.108 9.293l-6.766 3.932c-2.464-2.512-4.117-6.25-4.108-9.292C26.814 32.228 27.533 30.801 28.689 30.128z"/><path fill="#cdc678" d="M36.544,33.176c-1.275,0.742-2.551,1.483-3.827,2.224c-0.716,0.417-1.432,0.833-2.149,1.249
					c-0.237,0.138-0.525,0.388-0.79,0.459c-0.545-0.315-0.988-1.082-0.986-1.709l0,0c0,0,0.001,0,0.002-0.001
					c0.207-0.12,0.482-0.28,0.688-0.4c0.218-0.127,0.508-0.296,0.726-0.422c0.226-0.132,0.528-0.307,0.754-0.438
					c0.231-0.134,0.539-0.313,0.77-0.447c1.275-0.741,2.55-1.482,3.825-2.223c-2.255,1.31-4.51,2.621-6.765,3.932
					c0.004-1.405,0.502-2.395,1.303-2.86l6.766-3.932c-0.802,0.466-1.299,1.455-1.303,2.86c-0.001,0.313,0.109,0.662,0.288,0.971
					c-2.255,1.31-4.51,2.621-6.765,3.932c2.255-1.31,4.51-2.621,6.765-3.931C36.024,32.749,36.271,33.019,36.544,33.176z"/><polygon fill="#cdc678" points="29.778 37.108 36.544 33.176 43.482 37.182 36.716 41.114"/><polygon fill="#cd8600" points="30.982 35.521 37.749 31.59 42.29 34.212 35.524 38.144"/><path fill="#cdcdcd" d="M38.261,31.023c0.452-0.262,1.077-0.226,1.763,0.17c-1.128,0.656-2.256,1.311-3.383,1.966
					c-0.2,0.116-0.466,0.271-0.665,0.386c-0.198,0.115-0.461,0.268-0.659,0.383c-0.194,0.112-0.451,0.262-0.645,0.375
					c-0.187,0.109-0.437,0.254-0.625,0.363l-0.791,0.459c-0.686-0.396-1.311-0.432-1.763-0.17
					C33.525,33.775,36.231,32.203,38.261,31.023z"/><path fill="#cdc678" d="M35.845,32.439c-1.991,1.157-3.983,2.315-5.975,3.472C31.862,34.754,33.853,33.596,35.845,32.439
					C35.845,32.439,35.845,32.439,35.845,32.439z"/><path fill="#cd8600" d="M31.495,34.955l6.766-3.932c-0.214,0.124-0.389,0.315-0.513,0.567l-6.766,3.932
					C31.106,35.27,31.281,35.079,31.495,34.955z"/><path fill="#cdc678" d="M43.482 37.182c.276.159.526.174.708.069l-6.766 3.932c-.001.001-.003.001-.004.002 2.255-1.31 4.51-2.621 6.765-3.932-2.255 1.31-4.51 2.621-6.765 3.932-.181.102-.429.086-.703-.072C38.746 39.935 41.452 38.362 43.482 37.182zM34.766 31.927c-1.991 1.157-3.982 2.314-5.973 3.471 0 0-.001 0-.002.001C30.783 34.242 32.775 33.084 34.766 31.927z"/><path fill="#cdcdcd" d="M40.024,31.193c1.015,0.586,1.886,1.794,2.266,3.019l-6.766,3.932
					c-0.38-1.224-1.251-2.433-2.266-3.019C35.288,33.945,37.994,32.373,40.024,31.193z"/><path fill="#cd8600" d="M30.094,32.539l6.766-3.932c0.811-0.472,1.934-0.407,3.17,0.307l-6.766,3.932
					C32.028,32.133,30.906,32.067,30.094,32.539z"/><path fill="#cd8600" d="M44.19,37.251l-6.766,3.932c0.178-0.103,0.288-0.323,0.289-0.634
					c0.008-2.828-1.987-6.283-4.448-7.704l6.766-3.932c2.461,1.421,4.455,4.876,4.447,7.704
					C44.478,36.929,44.367,37.148,44.19,37.251z"/><path fill="#cdc678" d="M46.461,37.763c-0.005,1.981-0.707,3.444-1.887,4.13l-6.766,3.932
					c1.179-0.685,1.881-2.148,1.886-4.129c0.012-4.082-2.869-9.071-6.421-11.122l6.766-3.932
					C43.592,28.692,46.472,33.681,46.461,37.763z"/><path fill="#cdc678" d="M35.456,26.197c1.173-0.682,2.796-0.588,4.584,0.445l-6.766,3.932
					c-1.776-1.025-3.39-1.125-4.561-0.459c2.255-1.31,4.511-2.621,6.766-3.932c-2.255,1.311-4.51,2.621-6.766,3.932
					c-0.008,0.005-0.016,0.01-0.024,0.014C30.719,28.949,33.426,27.376,35.456,26.197z"/><path fill="#cd8600" d="M45.976 44.31l-6.766 3.932c1.543-.897 2.461-2.81 2.468-5.402.015-5.339-3.751-11.862-8.397-14.545l6.766-3.932c4.646 2.682 8.413 9.206 8.397 14.544C48.437 41.499 47.519 43.413 45.976 44.31zM37.246 66.52l6.766-3.932c0 .201-.044.37-.13.493l-6.766 3.932C37.202 66.89 37.245 66.72 37.246 66.52z"/><polygon fill="#cdcdcd" points="43.685 35.441 50.451 31.509 50.341 70.235 43.575 74.167"/><polygon fill="#cd8600" points="45.667 36.586 52.434 32.654 52.324 71.38 45.558 75.312"/><path fill="#cdcdcd" d="M44.562,75.879c0.17-0.168,0.482-0.28,0.688-0.4c1.762-1.024,3.524-2.048,5.286-3.072
					C48.545,73.565,46.553,74.722,44.562,75.879C44.562,75.879,44.562,75.879,44.562,75.879z"/><path fill="#0061cd" d="M49.367,73.098l-3.809,2.214l0.006-2.301l-1.989,1.156l0.013-4.406l-4.166-2.405l-4.3,2.498
					l0.151-0.215c-0.236,0.137-0.472,0.274-0.708,0.411c-0.046-0.009-0.093-0.023-0.141-0.041c-0.005-0.002-0.01-0.004-0.014-0.006
					c-0.051-0.02-0.101-0.043-0.152-0.072c-0.239-0.138-0.468-0.37-0.652-0.659l3.247-1.887l0.262-0.372
					c0.086-0.123,0.13-0.292,0.13-0.493l0.001-0.419l-0.962-0.556l-2.278,1.324l0,0l0,0l-2.469-3.923l0.062-0.106l-0.841-0.485
					c-0.106,0.061-0.211,0.122-0.316,0.183l-0.79,0.459c-0.267-0.425-0.382-0.903-0.317-1.254l-6.585,3.827l47.579,27.469
					l6.766-3.932L49.367,73.098z"/><path fill="#cdcdcd" d="M37.115 67.013c.086-.123.13-.292.131-.493l.004-1.536-3.244 1.885 0 0-2.469-3.923.654-1.115c.06-.101.095-.228.104-.37l-2.643 1.536 3.954 6.276 3.248-1.887L37.115 67.013zM41.331 66.119c.151.031.29.013.401-.052l-6.766 3.932c-.112.065-.25.083-.401.052 1.885-1.095 3.769-2.191 5.654-3.286.185-.107.371-.215.556-.323.096-.056.192-.112.288-.167.041-.024.097-.056.138-.08C41.239 66.171 41.286 66.126 41.331 66.119z"/><path fill="#cd8600" d="M41.732,66.067l-6.766,3.932c0.06-0.035,0.112-0.083,0.155-0.144l6.766-3.932
					C41.844,65.984,41.792,66.032,41.732,66.067z"/><path fill="#cdcdcd" d="M51.328,71.948c0.276,0.159,0.526,0.174,0.706,0.069l-6.766,3.932
					c-0.181,0.105-0.431,0.09-0.707-0.069c2.255-1.311,4.51-2.621,6.765-3.932c-2.254,1.31-4.51,2.621-6.764,3.931l0,0l0,0
					c-0.545-0.315-0.988-1.082-0.986-1.713c1.992-1.158,3.984-2.315,5.976-3.473l0.791-0.459
					C50.339,70.865,50.782,71.633,51.328,71.948z"/><path fill="#cd8600" d="M52.034,72.017l-6.766,3.932c0.179-0.104,0.289-0.324,0.29-0.637l6.766-3.932
					C52.323,71.693,52.213,71.913,52.034,72.017z"/><path fill="#cdc678" d="M33.274,30.573c3.552,2.051,6.432,7.04,6.421,11.122c-0.008,2.891-1.499,4.679-3.794,4.557
					c-0.353-0.017-0.581,0.257-0.582,0.705l-0.051,18.118l-1.26,1.794l-2.469-3.923l0.654-1.115
					c0.142-0.239,0.143-0.616,0.003-1.018l-0.667-1.934l1.482-0.844c0.188-0.104,0.293-0.335,0.294-0.635l0.006-2.279
					c0.001-0.323-0.118-0.699-0.325-1.034l-1.72-2.792l1.028-3.276c0.068-0.211,0.057-0.482-0.026-0.769l-0.075-0.263
					c0.341,0.244,0.686,0.468,1.035,0.669c0.545,0.315,0.991,0.064,0.993-0.566c0.001-0.631-0.441-1.394-0.987-1.709
					c-0.79-0.456-1.55-1.054-2.269-1.784c-2.511-2.562-4.164-6.3-4.155-9.342C26.82,30.173,29.722,28.523,33.274,30.573z
					 M36.716,41.114c0.549,0.317,0.995,0.063,0.996-0.564c0.008-2.828-1.986-6.283-4.447-7.704
					c-2.458-1.419-4.466-0.275-4.474,2.553c-0.002,0.627,0.441,1.394,0.986,1.709L36.716,41.114L36.716,41.114z"/><path fill="#cd8600" d="M30.56,43.266c0.12,0.069,0.241,0.165,0.36,0.286c0.014,0.015,0.029,0.03,0.044,0.045
					c0.719,0.73,1.479,1.328,2.269,1.784c0.546,0.315,0.988,1.079,0.987,1.709c-0.002,0.63-0.448,0.881-0.993,0.565
					c-0.349-0.201-0.694-0.424-1.035-0.669c-0.686-0.492-1.354-1.068-1.994-1.726c-0.511-0.524-0.76-1.331-0.56-1.801
					C29.791,43.098,30.165,43.038,30.56,43.266z"/><path fill="#cdcdcd" d="M55.323,63.986c-2.256,1.311-4.511,2.621-6.766,3.932c-0.549-0.317-0.989-1.082-0.987-1.713l0,0
					h0l0,0c0.686-0.399,1.373-0.798,2.06-1.197c0.736-0.428,1.472-0.855,2.208-1.284c0.832-0.484,1.665-0.967,2.497-1.451l0,0
					C54.334,62.904,54.774,63.67,55.323,63.986z"/><path fill="#cdcdcd" d="M54.336,62.274c-2.256,1.31-4.511,2.621-6.766,3.932c0.001-0.312,0.111-0.532,0.289-0.635
					l6.766-3.932C54.447,61.742,54.337,61.962,54.336,62.274z"/><path fill="#cd8600" d="M47.859,65.57l6.766-3.932c0.179-0.104,0.429-0.09,0.704,0.07l-6.766,3.932
					C48.287,65.481,48.038,65.466,47.859,65.57z"/><path fill="#0061cd" d="M20.9,17.726l6.766-3.932c-0.002,0.627,0.441,1.394,0.986,1.709l-6.766,3.932
					C21.341,19.119,20.898,18.352,20.9,17.726z"/><path fill="#cdcdcd" d="M55.339,58.292c-0.98,0.569-1.96,1.139-2.94,1.708c-0.733,0.426-1.466,0.852-2.198,1.278
					c-0.251,0.146-0.586,0.341-0.838,0.487c-0.237,0.138-0.553,0.322-0.79,0.459c-0.549-0.317-0.988-1.082-0.986-1.713l0,0
					c0,0,0,0,0,0l0,0c2.255-1.311,4.51-2.621,6.765-3.932c-2.255,1.31-4.511,2.621-6.766,3.932c0.001-0.312,0.111-0.532,0.289-0.635
					l6.766-3.932c-0.178,0.103-0.287,0.324-0.288,0.636C54.35,57.21,54.79,57.975,55.339,58.292z"/><path fill="#cd8600" d="M27.285,27.712l6.766-3.932c1.534-0.891,3.657-0.768,5.995,0.583l-6.766,3.932
					C30.942,26.945,28.819,26.821,27.285,27.712z"/><path fill="#cd8600" d="M33.281,28.295c4.646,2.682,8.412,9.206,8.397,14.545c-0.01,3.532-1.711,5.806-4.382,5.96
					l-0.05,17.72c-0.001,0.201-0.044,0.37-0.131,0.493l-1.994,2.841c-0.148,0.211-0.406,0.267-0.697,0.155
					c-0.055-0.022-0.11-0.046-0.166-0.078c-0.239-0.138-0.468-0.37-0.652-0.659l-3.954-6.276c-0.337-0.536-0.433-1.156-0.229-1.501
					l0.774-1.327l-0.765-2.212c-0.189-0.546-0.113-1.036,0.191-1.206l1.697-0.967l0.004-1.303l-1.861-3.014
					c-0.281-0.459-0.39-0.98-0.278-1.339l1.109-3.54l-0.504-1.755c-2.996-3.278-4.975-7.917-4.964-11.723
					C24.841,27.771,28.635,25.613,33.281,28.295z M35.901,46.251c2.296,0.123,3.786-1.666,3.794-4.557
					c0.012-4.082-2.869-9.071-6.421-11.122c-3.552-2.051-6.455-0.4-6.466,3.682c-0.009,3.042,1.645,6.78,4.108,9.292
					c-0.115-0.116-0.237-0.212-0.356-0.281c-0.395-0.228-0.769-0.168-0.924,0.194c-0.201,0.47,0.048,1.277,0.56,1.801
					c0.64,0.657,1.308,1.234,1.994,1.726l0.075,0.263c0.082,0.287,0.094,0.558,0.026,0.769l-1.028,3.276l1.72,2.792
					c0.208,0.336,0.326,0.711,0.325,1.034L33.303,57.4c-0.001,0.3-0.106,0.531-0.294,0.635l-1.482,0.844l0.667,1.934
					c0.14,0.402,0.139,0.778-0.003,1.018l-0.654,1.115l2.469,3.923l1.26-1.794l0.051-18.118
					C35.32,46.509,35.547,46.235,35.901,46.251L35.901,46.251z"/><path fill="#cdcdcd" d="M33.258,35.125c1.015,0.586,1.886,1.794,2.266,3.019l-4.542-2.622
					C31.368,34.739,32.247,34.541,33.258,35.125z"/><path fill="#cd8600" d="M47.875,59.876l6.766-3.932c0.18-0.104,0.429-0.09,0.705,0.069l-6.766,3.932
					C48.303,59.786,48.055,59.772,47.875,59.876z"/><path fill="#cdcdcd" d="M65.234,69.709c0.276,0.159,0.526,0.174,0.706,0.069l-6.766,3.932
					c-0.18,0.105-0.431,0.09-0.706-0.07C60.497,72.461,63.204,70.888,65.234,69.709z"/><path fill="#cd8600" d="M65.94,69.778l-6.766,3.932c0.178-0.104,0.289-0.324,0.29-0.637
					c0.002-0.626-0.441-1.394-0.99-1.711l6.766-3.932c0.549,0.317,0.992,1.084,0.99,1.711C66.229,69.454,66.118,69.674,65.94,69.778
					z"/><polygon fill="#cd8600" points="48.563 65.64 55.329 61.708 65.24 67.43 58.474 71.362"/><polygon fill="#cdcdcd" points="48.572 62.224 55.339 58.292 61.287 61.726 54.521 65.658"/><path fill="#cdcdcd" d="M55.355 52.594c-2.256 1.31-4.511 2.621-6.766 3.932-.549-.316-.988-1.079-.987-1.709l0 0h.001c2.255-1.311 4.51-2.621 6.766-3.932-2.256 1.31-4.511 2.621-6.766 3.932.001-.313.111-.533.289-.636l6.766-3.932c-.178.103-.288.323-.289.636C54.367 51.516 54.806 52.277 55.355 52.594zM61.287 61.726c.274.158.523.173.703.068l-6.766 3.932c-.18.105-.429.09-.703-.068C56.551 64.478 59.257 62.906 61.287 61.726z"/><path fill="#cd8600" d="M47.89,54.181l6.766-3.932c0.179-0.104,0.429-0.089,0.705,0.07l-6.766,3.932
					C48.319,54.092,48.07,54.076,47.89,54.181z"/><polygon fill="#cd8600" points="48.579 59.945 55.345 56.013 61.293 59.448 54.527 63.38"/><polygon fill="#cdcdcd" points="48.589 56.526 55.355 52.594 58.327 54.31 51.561 58.242"/><path fill="#cd8600" d="M54.527,63.38c0.546,0.315,0.989,1.082,0.987,1.709c-0.002,0.631-0.448,0.885-0.993,0.57
					l-5.949-3.434c-0.549-0.317-0.988-1.082-0.986-1.713c0.001-0.627,0.444-0.883,0.993-0.566L54.527,63.38z"/><path fill="#cd8600" d="M61.99,61.794l-6.766,3.932c0.178-0.104,0.289-0.324,0.29-0.638
					c0.002-0.626-0.441-1.394-0.987-1.709l6.766-3.932c0.546,0.315,0.989,1.082,0.987,1.709
					C62.279,61.47,62.168,61.691,61.99,61.794z"/><path fill="#cdcdcd" d="M69.199 71.998c-2.256 1.311-4.51 2.621-6.766 3.932-.545-.315-.988-1.082-.986-1.713l0 0c0 0 0 0 0 0l0 0c.596-.347 1.193-.693 1.789-1.04 1.659-.964 3.318-1.928 4.977-2.892l0 0C68.211 70.916 68.654 71.683 69.199 71.998zM59.035 54.381l-6.766 3.932c-.18.105-.431.09-.708-.07l6.766-3.932C58.604 54.47 58.855 54.485 59.035 54.381z"/><polygon fill="#cdcdcd" points="70.342 88.482 77.108 84.55 77.095 89.106 70.329 93.038"/><path fill="#cdcdcd" d="M68.213,70.285c-2.256,1.31-4.511,2.621-6.766,3.932c0.001-0.311,0.111-0.53,0.289-0.634
					l6.766-3.932C68.324,69.755,68.214,69.974,68.213,70.285z"/><polygon fill="#cd8600" points="48.595 54.251 55.361 50.319 58.334 52.035 51.568 55.968"/><path fill="#cd8600" d="M59.035,54.381l-6.766,3.932c0.178-0.103,0.288-0.322,0.288-0.634
					c0.002-0.63-0.441-1.394-0.989-1.711l6.766-3.932c0.549,0.317,0.992,1.08,0.99,1.711C59.323,54.059,59.213,54.278,59.035,54.381
					z"/><path fill="#cd8600" d="M51.568,55.968c0.548,0.317,0.991,1.08,0.989,1.711c-0.001,0.63-0.447,0.881-0.996,0.564
					l-2.973-1.716c-0.549-0.316-0.988-1.079-0.987-1.709c0.002-0.63,0.445-0.883,0.993-0.566L51.568,55.968z"/><path fill="#cdcdcd" d="M70.632,87.844l6.766-3.932c-0.179,0.103-0.289,0.324-0.29,0.637l-6.766,3.932
					C70.343,88.168,70.453,87.948,70.632,87.844z"/><path fill="#cd8600" d="M61.736,73.583l6.766-3.932c0.18-0.105,0.43-0.091,0.704,0.068l-6.766,3.932
					C62.165,73.493,61.916,73.478,61.736,73.583z"/><path fill="#cdcdcd" d="M65.25 64.014c-2.256 1.311-4.511 2.621-6.766 3.932-.545-.315-.988-1.082-.986-1.713l0 0c0 0 0 0 0 0l0 0c2.255-1.311 4.51-2.621 6.765-3.932-2.255 1.31-4.511 2.621-6.766 3.932.001-.312.111-.531.289-.634l6.766-3.932c-.178.103-.288.323-.289.634C64.261 62.932 64.704 63.699 65.25 64.014zM55.371 46.9c-2.255 1.31-4.511 2.621-6.766 3.932-.549-.316-.989-1.082-.987-1.709l0 0c.08-.024.169-.098.241-.14.606-.352 1.213-.705 1.819-1.057.736-.428 1.472-.855 2.208-1.283.833-.484 1.665-.968 2.497-1.451-2.255 1.31-4.51 2.621-6.766 3.932.001-.314.111-.535.29-.639l6.766-3.932c-.178.104-.289.325-.29.638C54.382 45.818 54.823 46.583 55.371 46.9z"/><polygon fill="#cdcdcd" points="71.341 85.637 78.107 81.705 78.101 83.98 71.335 87.912"/><path fill="#0061cd" d="M70.632,87.844l6.766-3.932c0.18-0.105,0.429-0.09,0.703,0.068l-6.766,3.932
					C71.061,87.754,70.812,87.739,70.632,87.844z"/><path fill="#cd8600" d="M57.786 65.599l6.766-3.932c.18-.105.43-.091.704.068l-6.766 3.932C58.216 65.509 57.967 65.495 57.786 65.599zM47.908 48.484l6.766-3.932c.18-.105.428-.09.704.069l-6.766 3.932C48.336 48.394 48.088 48.38 47.908 48.484z"/><polygon fill="#cdcdcd" points="62.433 75.93 69.199 71.998 73.165 74.287 66.399 78.219"/><path fill="#cdcdcd" d="M62.293 56.6c-2.256 1.311-4.511 2.621-6.766 3.932-.546-.315-.988-1.079-.987-1.709l0 0c0 0 0 0 0 0 2.255-1.31 4.51-2.621 6.766-3.932-2.256 1.311-4.511 2.621-6.766 3.932.001-.313.111-.532.289-.635l6.766-3.932c-.177.103-.287.322-.288.635C61.305 55.521 61.748 56.285 62.293 56.6zM73.165 74.287c.275.159.524.174.704.07l-6.766 3.932c-.18.105-.428.09-.704-.069C68.429 77.04 71.135 75.467 73.165 74.287z"/><path fill="#cd8600" d="M54.829,58.188l6.766-3.932c0.181-0.105,0.43-0.09,0.705,0.069l-6.766,3.932
					C55.259,58.098,55.009,58.083,54.829,58.188z"/><polygon fill="#cd8600" points="62.44 73.651 69.206 69.72 73.172 72.009 66.405 75.941"/><polygon fill="#cdcdcd" points="48.605 50.832 55.371 46.9 60.326 49.761 53.561 53.693"/><path fill="#cd8600" d="M73.868,74.357l-6.766,3.932c0.178-0.104,0.288-0.325,0.289-0.638
					c0.002-0.627-0.438-1.393-0.986-1.709l6.766-3.932c0.548,0.317,0.988,1.082,0.986,1.709
					C74.157,74.032,74.047,74.253,73.868,74.357z"/><path fill="#cd8600" d="M66.405,75.941c0.548,0.317,0.988,1.082,0.986,1.709c-0.002,0.63-0.444,0.886-0.993,0.569
					l-3.966-2.29c-0.545-0.315-0.988-1.082-0.986-1.713c0.002-0.626,0.447-0.881,0.993-0.566L66.405,75.941z"/><path fill="#cdcdcd" d="M61.034 49.83l-6.766 3.932c-.181.105-.431.09-.707-.069l6.766-3.932C60.603 49.921 60.853 49.935 61.034 49.83zM55.387 41.206c-2.256 1.31-4.511 2.621-6.766 3.932-.549-.316-.988-1.082-.986-1.709l0 0 0 0c.687-.399 1.373-.798 2.06-1.197.736-.428 1.472-.856 2.208-1.284.832-.484 1.665-.968 2.498-1.451-2.255 1.31-4.511 2.621-6.766 3.932.001-.314.111-.535.289-.639l6.766-3.932c-.179.104-.289.324-.29.638C54.399 40.123 54.838 40.889 55.387 41.206z"/><polygon fill="#cd8600" points="48.611 48.554 55.377 44.621 60.333 47.483 53.567 51.414"/><path fill="#cd8600" d="M47.924,42.79l6.766-3.932c0.179-0.105,0.428-0.09,0.704,0.069l-6.766,3.932
					C48.352,42.7,48.104,42.686,47.924,42.79z"/><path fill="#cdcdcd" d="M50.451,31.509c-2.255,1.31-4.51,2.621-6.766,3.932c0-0.312,0.111-0.531,0.289-0.634l6.766-3.932
					C50.562,30.978,50.452,31.198,50.451,31.509z"/><path fill="#cd8600" d="M61.034,49.83l-6.766,3.932c0.178-0.103,0.288-0.323,0.289-0.633
					c0.002-0.63-0.441-1.398-0.99-1.715l6.766-3.932c0.549,0.316,0.992,1.084,0.99,1.714C61.322,49.508,61.212,49.727,61.034,49.83z
					"/><path fill="#cdcdcd" d="M74.877,69.234l-6.766,3.932c-0.18,0.105-0.431,0.09-0.707-0.07l6.766-3.932
					C74.447,69.324,74.697,69.339,74.877,69.234z"/><path fill="#cd8600" d="M74.877,69.234l-6.766,3.932c0.178-0.104,0.289-0.324,0.289-0.637
					c0.002-0.627-0.441-1.394-0.989-1.711l6.766-3.932c0.549,0.317,0.992,1.084,0.99,1.711C75.166,68.91,75.055,69.13,74.877,69.234
					z"/><path fill="#cd8600" d="M67.411,70.818c0.548,0.317,0.991,1.084,0.989,1.711c-0.001,0.63-0.447,0.884-0.996,0.567
					l-8.921-5.15c-0.545-0.315-0.988-1.082-0.986-1.713c0.001-0.627,0.447-0.881,0.993-0.566L67.411,70.818z"/><path fill="#cdcdcd" d="M67.411,70.818l4.796-2.787l-6.958-4.017l-6.766,3.932l8.921,5.15l0.995-0.578
					C68.397,71.893,67.957,71.133,67.411,70.818z"/><polygon fill="#cd8600" points="58.49 65.667 65.256 61.736 74.177 66.886 67.411 70.818"/><polygon fill="#cdcdcd" points="55.527 60.532 62.293 56.6 68.241 60.034 61.475 63.966"/><path fill="#cd8600" d="M43.974,34.807l6.766-3.932c0.18-0.105,0.43-0.09,0.704,0.068l-6.766,3.932
					C44.404,34.717,44.154,34.702,43.974,34.807z"/><path fill="#cd8600" d="M44.678,34.875l6.766-3.932c0.548,0.317,0.991,1.084,0.989,1.711l-6.766,3.932
					C45.669,35.959,45.226,35.192,44.678,34.875z"/><path fill="#cd8600" d="M44.678,34.875c0.548,0.317,0.991,1.084,0.989,1.711l-0.109,38.726
					c-0.002,0.63-0.448,0.884-0.997,0.568c-0.545-0.315-0.988-1.082-0.986-1.713l0.11-38.726
					C43.687,34.814,44.132,34.561,44.678,34.875z"/><path fill="#cdcdcd" d="M68.946 60.103l-6.766 3.932c-.18.105-.43.089-.705-.069l6.766-3.932C68.517 60.193 68.766 60.208 68.946 60.103zM63.306 50.341c-.002.627.438 1.392.986 1.709-1.992 1.158-3.984 2.315-5.975 3.473l-.791.459c-.549-.317-.988-1.082-.986-1.709l0 0 0 0c.687-.399 1.373-.798 2.06-1.197.736-.428 1.472-.855 2.208-1.283C61.64 51.309 62.473 50.825 63.306 50.341L63.306 50.341z"/><polygon fill="#cd8600" points="55.533 58.257 62.299 54.325 68.248 57.759 61.482 61.691"/><path fill="#cdcdcd" d="M63.306,50.341c-2.256,1.31-4.511,2.621-6.766,3.932c0.001-0.314,0.111-0.535,0.289-0.638
					l6.766-3.932C63.417,49.806,63.307,50.028,63.306,50.341z"/><path fill="#cd8600" d="M68.946,60.103l-6.766,3.932c0.178-0.103,0.288-0.323,0.288-0.635
					c0.002-0.63-0.441-1.394-0.986-1.709l6.766-3.932c0.545,0.315,0.988,1.079,0.986,1.709C69.234,59.781,69.124,60,68.946,60.103z"/><path fill="#cd8600" d="M61.482 61.691c.545.315.988 1.079.986 1.709-.001.63-.447.881-.993.566l-5.948-3.434c-.546-.315-.988-1.079-.987-1.709.002-.631.448-.881.993-.566L61.482 61.691zM56.829 53.635l6.766-3.932c.18-.104.428-.09.704.07l-6.766 3.932C57.257 53.545 57.008 53.53 56.829 53.635z"/><path fill="#cdcdcd" d="M54.417 33.799c-.001.63.438 1.396.987 1.713-1.992 1.157-3.984 2.315-5.976 3.473l-.79.459c-.549-.317-.988-1.082-.987-1.712C49.906 36.42 52.161 35.11 54.417 33.799c-2.256 1.311-4.511 2.621-6.766 3.932.001-.312.111-.531.289-.635l6.766-3.932C54.527 33.267 54.417 33.487 54.417 33.799zM71.214 61.751c-2.255 1.31-4.511 2.621-6.766 3.932-.549-.316-.989-1.079-.987-1.709l0 0c0 0 0 0 0 0 2.255-1.311 4.51-2.621 6.765-3.932-2.255 1.31-4.51 2.621-6.766 3.932.001-.313.111-.533.288-.636l6.766-3.932c-.178.103-.287.323-.288.637C70.226 60.672 70.666 61.434 71.214 61.751z"/><path fill="#cd8600" d="M47.939 37.095l6.766-3.932c.18-.104.429-.09.704.07l-6.766 3.932C48.368 37.006 48.119 36.991 47.939 37.095zM63.75 63.338l6.766-3.932c.18-.104.429-.089.705.07l-6.766 3.932C64.179 63.248 63.93 63.233 63.75 63.338z"/><polygon fill="#cdcdcd" points="57.526 55.982 64.292 52.05 68.258 54.34 61.492 58.272"/><polygon fill="#cdcdcd" points="64.449 65.682 71.214 61.751 74.187 63.467 67.421 67.399"/><path fill="#cdcdcd" d="M68.961 54.408l-6.766 3.932c-.18.105-.43.09-.704-.068l6.766-3.932C68.532 54.498 68.781 54.513 68.961 54.408zM65.509 46.711l-6.766 3.932c-.181.105-.43.09-.704-.068l6.766-3.932C65.079 46.801 65.328 46.816 65.509 46.711z"/><path fill="#cd8600" d="M65.509,46.711l-6.766,3.932c0.178-0.103,0.288-0.322,0.289-0.634
					c0.002-0.63-0.441-1.398-0.986-1.713l6.766-3.932c0.545,0.315,0.988,1.082,0.986,1.712
					C65.797,46.388,65.686,46.608,65.509,46.711z"/><path fill="#cd8600" d="M58.045,48.296c0.545,0.315,0.988,1.082,0.986,1.713c-0.001,0.627-0.447,0.881-0.993,0.566
					l-9.418-5.438c-0.549-0.316-0.988-1.082-0.986-1.709c0.001-0.63,0.444-0.886,0.993-0.569L58.045,48.296z"/><path fill="#cdcdcd" d="M58.045,48.296l4.796-2.787l-7.454-4.304l-6.766,3.932l9.418,5.438l0.993-0.577
					C59.028,49.369,58.588,48.61,58.045,48.296z"/><polygon fill="#cd8600" points="48.628 42.859 55.394 38.927 64.811 44.364 58.045 48.296"/><polygon fill="#cdcdcd" points="48.637 39.443 55.403 35.511 59.369 37.801 52.603 41.733"/><path fill="#cdcdcd" d="M74.895,63.537l-6.766,3.932c-0.18,0.105-0.431,0.09-0.708-0.07l6.766-3.932
					C74.464,63.626,74.714,63.642,74.895,63.537z"/><polygon fill="#cd8600" points="57.533 53.704 64.299 49.772 68.264 52.061 61.498 55.993"/><path fill="#cdcdcd" d="M60.072,37.869l-6.766,3.932c-0.18,0.105-0.429,0.09-0.703-0.068l6.766-3.932
					C59.643,37.959,59.892,37.974,60.072,37.869z"/><path fill="#cd8600" d="M68.962,54.408l-6.766,3.932c0.178-0.103,0.288-0.323,0.289-0.634
					c0.002-0.63-0.441-1.398-0.986-1.713l6.766-3.932c0.546,0.315,0.989,1.082,0.987,1.713C69.25,54.085,69.14,54.305,68.962,54.408
					z"/><polygon fill="#cd8600" points="64.455 63.408 71.221 59.475 74.193 61.192 67.427 65.124"/><polygon fill="#cd8600" points="48.644 37.165 55.41 33.233 59.375 35.522 52.609 39.455"/><path fill="#cd8600" d="M74.895 63.537l-6.766 3.932c.177-.103.287-.322.288-.634.002-.631-.441-1.394-.99-1.711l6.766-3.932c.549.317.992 1.081.99 1.711C75.182 63.215 75.072 63.434 74.895 63.537zM60.072 37.869l-6.766 3.932c.178-.104.289-.324.29-.637.001-.627-.441-1.394-.987-1.709l6.766-3.932c.545.315.988 1.082.987 1.709C60.361 37.545 60.25 37.765 60.072 37.869z"/><polygon fill="#cdcdcd" points="66.447 61.133 73.213 57.201 74.203 57.772 67.437 61.704"/><path fill="#cdcdcd" d="M72.226 55.492c-.001.627.438 1.392.987 1.709-1.128.655-2.256 1.31-3.383 1.966-.864.502-1.728 1.004-2.593 1.507l-.79.459c-.549-.316-.988-1.082-.986-1.709l0 0 0 0 0 0 0 0c.687-.399 1.373-.798 2.06-1.197.552-.321 1.104-.642 1.656-.962.402-.234.805-.467 1.207-.701C70.998 56.206 71.612 55.849 72.226 55.492c-2.256 1.311-4.511 2.621-6.766 3.932.001-.314.111-.535.289-.639l6.766-3.932C72.338 54.957 72.227 55.178 72.226 55.492zM62.345 38.376c-.001.63.441 1.398.99 1.714-1.127.656-2.256 1.311-3.383 1.966-.865.503-1.729 1.005-2.593 1.507l-.791.459c-.549-.317-.991-1.084-.99-1.714C57.834 40.997 60.089 39.687 62.345 38.376c-2.256 1.311-4.511 2.621-6.766 3.932.001-.311.111-.53.289-.634l6.766-3.932C62.456 37.846 62.346 38.065 62.345 38.376zM67.781 47.222c-.002.627.441 1.394.987 1.709-1.128.655-2.256 1.31-3.383 1.966-.865.502-1.729 1.004-2.593 1.506l-.79.459c-.546-.315-.989-1.082-.987-1.709l0 0c0 0 0 0 0 0l0 0c.686-.399 1.373-.798 2.06-1.197.736-.428 1.472-.856 2.208-1.284C66.116 48.189 66.948 47.705 67.781 47.222c-2.256 1.311-4.511 2.621-6.766 3.932.001-.314.112-.534.29-.638l6.766-3.932C67.893 46.688 67.782 46.908 67.781 47.222zM74.911 57.842l-6.766 3.932c-.181.105-.431.09-.708-.069l6.766-3.932C74.479 57.932 74.73 57.947 74.911 57.842z"/><path fill="#cd8600" d="M65.75 58.785l6.766-3.932c.18-.105.428-.09.703.069l-6.766 3.932C66.178 58.695 65.93 58.681 65.75 58.785zM55.868 41.675l6.766-3.932c.181-.105.431-.09.708.07l-6.766 3.932C56.299 41.584 56.048 41.569 55.868 41.675zM61.305 50.516l6.766-3.932c.18-.105.429-.09.703.068l-6.766 3.932C61.734 50.426 61.485 50.411 61.305 50.516z"/><polygon fill="#cd8600" points="66.454 58.855 73.219 54.923 74.21 55.494 67.444 59.426"/><path fill="#cd8600" d="M74.911,57.842l-6.766,3.932c0.178-0.103,0.288-0.323,0.289-0.633
					c0.001-0.63-0.441-1.398-0.99-1.715l6.766-3.932c0.549,0.316,0.991,1.084,0.99,1.714C75.199,57.519,75.088,57.739,74.911,57.842
					z"/><polygon fill="#cdcdcd" points="62.001 52.862 68.768 48.931 74.219 52.078 67.453 56.01"/><polygon fill="#cdcdcd" points="56.568 44.022 63.334 40.09 69.28 43.523 62.514 47.455"/><path fill="#cdcdcd" d="M74.927 52.148l-6.766 3.932c-.181.105-.431.09-.707-.069l6.766-3.932C74.496 52.238 74.746 52.252 74.927 52.148zM69.987 43.592l-6.766 3.932c-.18.105-.431.09-.707-.07l6.766-3.932C69.556 43.682 69.806 43.697 69.987 43.592z"/><polygon fill="#cd8600" points="62.008 50.584 68.774 46.652 74.226 49.8 67.46 53.732"/><polygon fill="#cd8600" points="56.575 41.744 63.341 37.812 69.286 41.244 62.52 45.177"/><path fill="#cd8600" d="M74.927 52.148l-6.766 3.932c.178-.103.288-.323.289-.633.002-.63-.441-1.398-.99-1.715l6.766-3.932c.549.316.992 1.084.99 1.714C75.214 51.825 75.104 52.044 74.927 52.148zM69.987 43.592l-6.766 3.932c.178-.104.289-.324.29-.637.002-.627-.441-1.394-.99-1.711l6.766-3.932c.549.317.992 1.084.99 1.711C70.275 43.268 70.165 43.488 69.987 43.592z"/><path fill="#cd8600" d="M62.52,45.177c0.549,0.316,0.992,1.084,0.99,1.711c-0.002,0.63-0.448,0.884-0.996,0.567
					l-5.946-3.432c-0.548-0.317-0.991-1.084-0.99-1.714c0.002-0.627,0.448-0.881,0.996-0.565L62.52,45.177z"/><path fill="#cdcdcd" d="M65.493,48.032L65.493,48.032L65.493,48.032c1.992-1.157,3.984-2.315,5.975-3.472
					C69.477,45.717,67.485,46.874,65.493,48.032z"/><polygon fill="#cdcdcd" points="66.479 49.744 73.245 45.813 74.235 46.384 67.47 50.316"/><path fill="#cdcdcd" d="M72.259 44.1c-.002.63.438 1.396.986 1.713-1.128.655-2.256 1.31-3.383 1.966-.864.502-1.728 1.004-2.592 1.507l-.79.459c-.549-.317-.988-1.082-.986-1.713l0 0 0 0 0 0c1.992-1.157 3.984-2.315 5.975-3.472C71.731 44.406 71.995 44.253 72.259 44.1c-2.256 1.311-4.511 2.621-6.766 3.932.001-.312.111-.532.289-.635l6.766-3.932C72.37 43.568 72.26 43.788 72.259 44.1zM74.942 46.453l-6.766 3.932c-.181.105-.431.09-.707-.069l6.766-3.932C74.512 46.543 74.761 46.558 74.942 46.453z"/><path fill="#cd8600" d="M65.782,47.397l6.766-3.932c0.18-0.104,0.429-0.09,0.705,0.07l-6.766,3.932
					C66.211,47.307,65.961,47.292,65.782,47.397z"/><polygon fill="#cd8600" points="66.486 47.466 73.252 43.534 74.242 44.106 67.476 48.037"/><path fill="#cd8600" d="M61.498 55.993c.545.315.988 1.082.986 1.713-.002.627-.447.881-.993.566l-3.966-2.29c-.549-.317-.988-1.082-.986-1.709.002-.63.444-.886.993-.569L61.498 55.993zM67.46 53.732c.549.317.992 1.084.99 1.715-.002.627-.447.881-.996.564l-5.452-3.148c-.546-.315-.989-1.082-.987-1.709.002-.63.448-.885.993-.569L67.46 53.732zM74.942 46.453l-6.766 3.932c.178-.103.288-.324.289-.637.002-.627-.441-1.394-.99-1.711l6.766-3.932c.549.316.992 1.084.99 1.711C75.231 46.13 75.12 46.35 74.942 46.453z"/><path fill="#cd8600" d="M67.476,48.037c0.549,0.317,0.992,1.084,0.99,1.711c-0.002,0.63-0.448,0.885-0.996,0.568
					l-0.99-0.572c-0.549-0.317-0.988-1.082-0.986-1.712c0.002-0.627,0.444-0.883,0.993-0.566L67.476,48.037z"/><path fill="#cdcdcd" d="M70.355,83.925l0.103-36.447l-47.579-27.47L22.75,65.569l47.579,27.469l0.013-4.557
					c0.002-0.631,0.447-0.885,0.993-0.57l0.006-2.275C70.796,85.322,70.353,84.555,70.355,83.925z M56.575,41.744l5.945,3.433
					c0.549,0.317,0.992,1.084,0.99,1.711c-0.002,0.63-0.448,0.884-0.996,0.567l-5.946-3.432c-0.549-0.317-0.991-1.084-0.99-1.714
					C55.581,41.681,56.026,41.427,56.575,41.744L56.575,41.744z M48.644,37.165l3.966,2.29c0.545,0.315,0.988,1.082,0.986,1.709
					c-0.001,0.63-0.447,0.884-0.993,0.569l-3.966-2.29c-0.549-0.317-0.988-1.082-0.987-1.712
					C47.652,37.104,48.095,36.848,48.644,37.165L48.644,37.165z M47.713,43.029c0.05-0.108,0.123-0.189,0.213-0.241
					c0.067-0.039,0.144-0.061,0.229-0.065c0.028-0.001,0.057-0.001,0.087,0.002c0.118,0.011,0.249,0.054,0.386,0.133l3.98,2.298
					l5.438,3.139c0.068,0.039,0.134,0.086,0.199,0.138c0.032,0.026,0.064,0.054,0.095,0.083c0.34,0.319,0.601,0.799,0.674,1.25
					c0.013,0.082,0.02,0.163,0.019,0.241c0,0.118-0.016,0.222-0.046,0.312c-0.078,0.24-0.251,0.378-0.476,0.388
					c-0.141,0.007-0.301-0.036-0.472-0.134l-9.418-5.438c-0.377-0.217-0.703-0.647-0.869-1.098
					c-0.076-0.206-0.118-0.415-0.118-0.611C47.635,43.271,47.663,43.137,47.713,43.029L47.713,43.029z M62.363,58.178
					c-0.077,0.117-0.186,0.192-0.318,0.218c-0.079,0.016-0.167,0.014-0.259-0.006c-0.093-0.021-0.192-0.059-0.294-0.119l-3.966-2.29
					c-0.069-0.04-0.135-0.086-0.2-0.139c-0.161-0.131-0.308-0.299-0.43-0.485c-0.024-0.037-0.048-0.075-0.07-0.114
					c-0.156-0.271-0.26-0.571-0.282-0.852c-0.003-0.04-0.005-0.08-0.005-0.119c0-0.236,0.063-0.42,0.17-0.541
					c0.035-0.04,0.076-0.074,0.121-0.099c0.023-0.013,0.046-0.024,0.071-0.033c0.049-0.018,0.102-0.029,0.158-0.032
					c0.141-0.007,0.302,0.036,0.473,0.135l3.966,2.29c0.068,0.039,0.134,0.086,0.199,0.138c0.064,0.052,0.127,0.11,0.186,0.174
					c0.059,0.063,0.115,0.131,0.167,0.202c0.026,0.036,0.052,0.072,0.076,0.11c0.097,0.149,0.179,0.311,0.24,0.476
					c0.015,0.041,0.029,0.083,0.041,0.124c0.025,0.083,0.044,0.166,0.057,0.247c0.013,0.082,0.02,0.163,0.02,0.242
					C62.484,57.902,62.44,58.061,62.363,58.178L62.363,58.178z M62.468,63.4c-0.001,0.63-0.447,0.881-0.993,0.566l-5.948-3.434
					c-0.546-0.315-0.989-1.079-0.987-1.709c0.002-0.63,0.448-0.881,0.993-0.566l5.949,3.434C62.027,62.006,62.47,62.77,62.468,63.4
					L62.468,63.4z M48.611,48.554l4.955,2.861c0.549,0.317,0.992,1.084,0.99,1.715c-0.002,0.627-0.448,0.881-0.996,0.564
					l-4.955-2.861c-0.549-0.316-0.989-1.082-0.987-1.709C47.62,48.493,48.063,48.237,48.611,48.554L48.611,48.554z M48.595,54.251
					l2.973,1.717c0.549,0.317,0.992,1.08,0.99,1.711c-0.001,0.63-0.447,0.881-0.996,0.564l-2.973-1.716
					c-0.549-0.316-0.988-1.079-0.987-1.709C47.604,54.187,48.046,53.934,48.595,54.251L48.595,54.251z M48.579,59.945l5.948,3.434
					c0.546,0.315,0.989,1.082,0.987,1.709c-0.002,0.631-0.448,0.885-0.993,0.57l-5.949-3.434c-0.549-0.317-0.988-1.082-0.986-1.713
					C47.588,59.884,48.031,59.629,48.579,59.945L48.579,59.945z M37.296,48.8l-0.05,17.72c-0.001,0.201-0.044,0.37-0.131,0.493
					l-1.994,2.842c-0.148,0.211-0.406,0.266-0.697,0.155c-0.055-0.021-0.11-0.046-0.166-0.078c-0.239-0.138-0.468-0.37-0.652-0.659
					l-3.954-6.276c-0.337-0.536-0.433-1.156-0.229-1.501l0.774-1.327l-0.764-2.212c-0.189-0.546-0.114-1.036,0.191-1.206
					l1.697-0.967l0.004-1.303l-1.861-3.014c-0.281-0.459-0.39-0.98-0.278-1.339l1.109-3.54l-0.504-1.755
					c-2.996-3.278-4.975-7.917-4.964-11.723c0.015-5.339,3.809-7.497,8.455-4.815c4.646,2.682,8.412,9.206,8.397,14.545
					C41.668,46.372,39.967,48.645,37.296,48.8L37.296,48.8z M45.558,75.312c-0.002,0.63-0.448,0.884-0.997,0.568
					c-0.545-0.315-0.988-1.082-0.986-1.713l0.11-38.726c0.001-0.627,0.447-0.881,0.993-0.566c0.549,0.317,0.992,1.084,0.99,1.711
					L45.558,75.312L45.558,75.312z M58.468,73.64l-9.911-5.722c-0.549-0.317-0.989-1.082-0.987-1.713
					c0.002-0.627,0.444-0.882,0.993-0.566l9.911,5.722c0.549,0.316,0.992,1.084,0.99,1.711
					C59.462,73.703,59.016,73.957,58.468,73.64L58.468,73.64z M66.399,78.219l-3.966-2.29c-0.545-0.315-0.988-1.082-0.986-1.712
					c0.002-0.627,0.447-0.881,0.993-0.566l3.966,2.29c0.548,0.317,0.988,1.082,0.986,1.709C67.39,78.28,66.947,78.536,66.399,78.219
					L66.399,78.219z M67.405,73.097l-8.921-5.151c-0.545-0.315-0.988-1.082-0.986-1.713c0.001-0.627,0.447-0.881,0.993-0.566
					l8.921,5.151c0.549,0.317,0.992,1.084,0.99,1.711C68.399,73.159,67.953,73.413,67.405,73.097L67.405,73.097z M67.421,67.399
					l-2.973-1.717c-0.548-0.316-0.988-1.079-0.986-1.709c0.002-0.63,0.444-0.883,0.993-0.566l2.973,1.716
					c0.549,0.317,0.992,1.08,0.99,1.711C68.415,67.465,67.97,67.716,67.421,67.399L67.421,67.399z M67.437,61.704l-0.99-0.572
					c-0.549-0.316-0.988-1.082-0.986-1.709c0.001-0.63,0.444-0.886,0.993-0.569l0.99,0.571c0.549,0.317,0.991,1.084,0.99,1.715
					C68.432,61.767,67.986,62.021,67.437,61.704L67.437,61.704z M68.328,55.919c-0.061,0.094-0.144,0.16-0.242,0.196
					c-0.024,0.009-0.05,0.016-0.076,0.021c-0.026,0.005-0.054,0.009-0.082,0.01c-0.141,0.006-0.302-0.037-0.474-0.136l-5.452-3.148
					c-0.205-0.118-0.395-0.299-0.552-0.514c-0.026-0.036-0.052-0.072-0.076-0.11c-0.073-0.112-0.137-0.23-0.191-0.352
					c-0.018-0.04-0.034-0.081-0.049-0.122c-0.076-0.205-0.118-0.415-0.118-0.611c0-0.237,0.064-0.42,0.171-0.54
					c0.071-0.08,0.163-0.132,0.268-0.154c0.026-0.005,0.054-0.009,0.082-0.01c0.028-0.001,0.057-0.001,0.087,0.002
					c0.03,0.002,0.06,0.007,0.091,0.014c0.093,0.02,0.192,0.059,0.294,0.119l5.452,3.147c0.069,0.04,0.136,0.086,0.2,0.139
					c0.065,0.053,0.127,0.111,0.186,0.174c0.06,0.063,0.116,0.131,0.168,0.202c0.264,0.358,0.436,0.805,0.435,1.199
					C68.449,55.642,68.405,55.801,68.328,55.919L68.328,55.919z M67.469,50.316l-0.99-0.572c-0.549-0.317-0.988-1.082-0.986-1.712
					c0.001-0.627,0.444-0.883,0.993-0.566l0.99,0.571c0.549,0.317,0.992,1.084,0.99,1.711
					C68.464,50.379,68.018,50.633,67.469,50.316L67.469,50.316z"/><path fill="#cd8600" d="M58.474,71.362l-9.911-5.722c-0.549-0.316-0.991-0.061-0.993,0.566
					c-0.002,0.631,0.438,1.396,0.987,1.713l9.911,5.722c0.548,0.317,0.994,0.063,0.996-0.567
					C59.466,72.446,59.023,71.678,58.474,71.362z"/><path fill="#cdcdcd" d="M59.463,73.062c-0.003-0.625-0.444-1.385-0.989-1.7l-7.947-4.589l-1.97,1.145l9.911,5.722
					L59.463,73.062z"/><path fill="#cd8600" d="M33.265,32.846c2.461,1.421,4.455,4.876,4.448,7.704c-0.002,0.627-0.448,0.881-0.997,0.564
					l-6.938-4.006c-0.545-0.315-0.988-1.082-0.986-1.709C28.799,32.572,30.807,31.428,33.265,32.846z M30.982,35.521l4.542,2.622
					c-0.38-1.224-1.251-2.433-2.266-3.019C32.247,34.541,31.368,34.739,30.982,35.521L30.982,35.521z"/><polygon fill="#0061cd" points="22.905 10.894 29.671 6.962 29.652 13.797 22.886 17.729"/><path fill="#81cbcd" d="M24.876,15.456C24.876,15.456,24.876,15.456,24.876,15.456c1.991-1.157,3.983-2.315,5.975-3.472
					c-1.012,0.588-2.024,1.176-3.036,1.764c-0.116,0.067-0.271,0.157-0.387,0.225c-0.379,0.22-0.758,0.441-1.138,0.661
					c-0.217,0.127-0.508,0.295-0.726,0.422C25.358,15.176,25.095,15.361,24.876,15.456z"/><polygon fill="#cdcdcd" points="70.458 47.477 77.224 43.545 77.121 79.993 70.355 83.925"/><polygon fill="#0061cd" points="40.225 30.023 46.991 26.09 78.214 44.117 71.448 48.049"/><path fill="#0061cd" d="M47.697,26.159l-6.766,3.932c-0.185,0.107-0.439,0.086-0.706-0.068l6.766-3.932
					C47.259,26.244,47.513,26.266,47.697,26.159z"/><path fill="#0061cd" d="M47.697 26.159l-6.766 3.932c.063-.037.118-.089.163-.156.176-.258.165-.709-.025-1.171l6.766-3.932c.189.462.2.913.024 1.171C47.815 26.07 47.76 26.122 47.697 26.159zM25.165 14.82l6.766-3.932c.181-.105.431-.09.707.069l-6.766 3.932C25.596 14.729 25.346 14.715 25.165 14.82zM21.214 7.977l6.766-3.932c.18-.105.43-.089.705.069l-6.766 3.932C21.644 7.887 21.394 7.872 21.214 7.977z"/><path fill="#81cbcd" d="M39.901,17.432c0.274,0.159,0.524,0.173,0.704,0.068l-6.766,3.932
					c-0.18,0.105-0.43,0.09-0.704-0.068c1.992-1.158,3.983-2.315,5.975-3.473C39.347,17.754,39.664,17.57,39.901,17.432z"/><polygon fill="#0061cd" points="25.872 14.889 32.638 10.957 39.907 15.154 33.141 19.086"/><path fill="#0061cd" d="M40.604,17.5l-6.766,3.932c0.178-0.103,0.288-0.323,0.289-0.634
					c0.001-0.63-0.441-1.397-0.987-1.712l6.766-3.932c0.545,0.315,0.988,1.082,0.987,1.712C40.893,17.178,40.783,17.397,40.604,17.5
					z"/><polygon fill="#81cbcd" points="34.744 17.729 41.51 13.797 45.208 22.779 38.442 26.711"/><polygon fill="#81cbcd" points="22.905 10.894 29.671 6.962 41.51 13.797 34.744 17.729"/><polygon fill="#0061cd" points="36.14 16.793 42.907 12.861 47.836 24.832 41.07 28.764"/><path fill="#cdcdcd" d="M69.309,33.272c-0.002,0.631,0.444,1.396,0.99,1.711l-6.766,3.932
					c-0.545-0.315-0.992-1.081-0.99-1.711C64.798,35.894,67.053,34.583,69.309,33.272z"/><path fill="#cdcdcd" d="M70.299,34.982c0.274,0.158,0.524,0.173,0.704,0.068l-6.766,3.932
					c-0.181,0.105-0.431,0.09-0.704-0.068C65.563,37.735,68.269,36.162,70.299,34.982z"/><path fill="#0061cd" d="M71.003,35.051l-6.766,3.932c0.178-0.103,0.288-0.322,0.289-0.634
					c0.002-0.634-0.444-1.399-0.987-1.713l6.766-3.932c0.542,0.313,0.989,1.079,0.987,1.712
					C71.291,34.729,71.18,34.947,71.003,35.051z"/><path fill="#cdcdcd" d="M73.275 35.561c-.002.63.441 1.394.986 1.709l-6.766 3.932c-.545-.315-.988-1.079-.986-1.709C68.764 38.183 71.019 36.872 73.275 35.561zM66.333 32.693c.275.159.525.174.705.069l-6.766 3.932c-.18.105-.43.09-.705-.069C61.597 35.446 64.303 33.873 66.333 32.693z"/><path fill="#cdcdcd" d="M73.564 34.923c-.178.103-.288.323-.289.638-2.255 1.311-4.51 2.622-6.766 3.932.001-.315.111-.535.289-.638C68.827 37.675 71.534 36.103 73.564 34.923zM74.261 37.27c.276.159.527.175.708.069l-6.766 3.932c-.181.105-.432.09-.708-.069C69.525 40.023 72.231 38.45 74.261 37.27z"/><path fill="#0061cd" d="M66.798,38.855l6.766-3.932c0.181-0.105,0.43-0.089,0.704,0.069l-6.766,3.932
					C67.227,38.765,66.978,38.75,66.798,38.855z"/><path fill="#0061cd" d="M74.969,37.339l-6.766,3.932c0.177-0.103,0.288-0.321,0.288-0.633
					c0.001-0.634-0.445-1.399-0.99-1.714l6.766-3.932c0.545,0.315,0.991,1.08,0.99,1.714C75.257,37.018,75.146,37.236,74.969,37.339
					z"/><path fill="#0061cd" d="M67.502,38.924c0.545,0.315,0.991,1.08,0.99,1.714c-0.002,0.63-0.451,0.879-0.996,0.564
					c-0.545-0.315-0.988-1.079-0.986-1.709C66.511,38.859,66.956,38.609,67.502,38.924z"/><polygon fill="#cdcdcd" points="70.484 38.364 77.25 34.431 77.23 41.267 70.464 45.199"/><polygon fill="#0061cd" points="72.47 38.371 79.236 34.439 79.21 43.553 72.444 47.485"/><path fill="#0061cd" d="M78.214,44.117c0.277,0.159,0.527,0.174,0.708,0.069l-6.766,3.932
					c-0.181,0.105-0.431,0.09-0.708-0.07C73.478,46.869,76.184,45.296,78.214,44.117z"/><polygon fill="#0061cd" points="72.444 47.485 79.21 43.553 79.104 81.138 72.338 85.07"/><path fill="#0061cd" d="M78.107 81.705c-.98.57-1.96 1.139-2.94 1.708-.733.426-1.466.852-2.199 1.278-.251.146-.586.341-.838.487-.12.07-.281.164-.402.234-.117.068-.272.158-.388.226-.545-.315-.988-1.082-.986-1.713 1.992-1.157 3.984-2.315 5.976-3.473l.791-.459C77.119 80.623 77.562 81.39 78.107 81.705zM78.921 44.186l-6.766 3.932c.178-.103.288-.322.289-.634l6.766-3.932C79.209 43.863 79.099 44.083 78.921 44.186z"/><polygon fill="#0061cd" points="40.625 27.684 47.391 23.751 47.547 24.129 40.781 28.061"/><polygon fill="#0061cd" points="37.082 19.079 43.848 15.147 47.391 23.751 40.625 27.684"/><path fill="#cdcdcd" d="M65.343,30.983c-0.001,0.63,0.438,1.392,0.99,1.71l-6.766,3.932
					c-0.551-0.318-0.991-1.081-0.99-1.711C60.833,33.604,63.088,32.293,65.343,30.983z"/><path fill="#cdcdcd" d="M65.632,30.343c-0.178,0.104-0.287,0.324-0.288,0.639c-2.255,1.31-4.511,2.621-6.766,3.932
					c0.001-0.315,0.111-0.536,0.289-0.639C60.896,33.096,63.602,31.523,65.632,30.343z"/><path fill="#0061cd" d="M58.866 34.275l6.766-3.932c.18-.105.43-.089.708.072l-6.766 3.932C59.296 34.187 59.046 34.171 58.866 34.275zM67.038 32.762l-6.766 3.932c.178-.103.287-.322.289-.635.002-.634-.441-1.397-.986-1.712l6.766-3.932c.545.315.988 1.078.986 1.712C67.325 32.44 67.215 32.659 67.038 32.762z"/><path fill="#cdcdcd" d="M69.598,32.635c-0.178,0.103-0.288,0.323-0.289,0.637c-2.256,1.311-4.511,2.622-6.766,3.932
					c0.001-0.314,0.111-0.534,0.289-0.637C64.862,35.388,67.568,33.815,69.598,32.635z"/><path fill="#0061cd" d="M62.832 36.567l6.766-3.932c.181-.105.432-.09.707.069l-6.766 3.932C63.264 36.477 63.013 36.462 62.832 36.567zM71.48 36.66l6.766-3.932c.549.316.992 1.08.99 1.711l-6.766 3.932C72.472 37.741 72.029 36.977 71.48 36.66z"/><polygon fill="#0061cd" points="37.082 19.079 43.848 15.147 77.25 34.431 70.484 38.364"/><polygon fill="#0061cd" points="35.302 15.773 42.069 11.841 78.246 32.728 71.48 36.66"/><path fill="#0061cd" d="M35.302,15.773l6.766-3.932c0.34,0.196,0.658,0.581,0.838,1.02l-6.766,3.932
					C35.96,16.354,35.642,15.969,35.302,15.773z"/><path fill="#0061cd" d="M71.48,36.66c0.549,0.317,0.992,1.081,0.99,1.711l-0.026,9.113
					c-0.002,0.627-0.448,0.881-0.996,0.564L40.225,30.023c0.359,0.207,0.694,0.174,0.869-0.087c0.176-0.258,0.165-0.709-0.025-1.171
					l-0.289-0.703l29.684,17.138l0.02-6.835L37.082,19.079l3.543,8.604L36.14,16.793c-0.18-0.439-0.498-0.824-0.838-1.02
					L71.48,36.66z"/><path fill="#0061cd" d="M71.448,48.049l-0.99-0.572l-0.103,36.447c-0.002,0.63,0.441,1.398,0.986,1.713
					c0.549,0.317,0.994,0.062,0.996-0.568l0.106-37.585C72.442,48.111,71.996,48.365,71.448,48.049z M22.879,20.008l17.346,10.015
					l30.233,17.455l0,0L22.879,20.008z M20.9,17.726l-0.136,47.836c-0.002,0.63,0.441,1.394,0.987,1.709l49.562,28.614
					c0.548,0.317,0.994,0.066,0.996-0.564l0.016-5.694c0.001-0.631-0.441-1.398-0.99-1.715c-0.546-0.315-0.991-0.061-0.993,0.57
					l-0.013,4.557L22.75,65.569l0.129-45.561l-0.993-0.573C21.341,19.119,20.898,18.352,20.9,17.726z"/><path fill="#cdcdcd" d="M40.225,30.023c0.359,0.207,0.694,0.174,0.869-0.087c0.176-0.258,0.165-0.709-0.025-1.171
					l-0.414-1.005l-0.031-0.075l-0.745-1.809l-1.438,0.836L35.8,20.293l-1.961,1.14c-0.18,0.105-0.43,0.09-0.704-0.068
					c0.331-0.192,0.661-0.385,0.993-0.577c-0.003-0.628-0.444-1.388-0.986-1.701l-4.352-2.512l-5.91,3.434l32.118,18.543
					L40.225,30.023z"/><path fill="#0061cd" d="M33.838,21.432c-0.18,0.105-0.43,0.09-0.704-0.068c0.331-0.192,0.661-0.385,0.993-0.577
					c-0.003-0.628-0.444-1.388-0.986-1.701l-6.315-3.646l-3.94,2.29l15.556,8.981L35.8,20.293L33.838,21.432z"/><path fill="#81cbcd" d="M33.141,19.086l-5.306-3.063l-1.97,1.145l7.27,4.197l0.993-0.577
					C34.124,20.159,33.683,19.399,33.141,19.086z"/><path fill="#0061cd" d="M20.9,17.726c0,0.157,0.027,0.322,0.077,0.487c0.012,0.041,0.026,0.083,0.041,0.124
					c0.03,0.082,0.066,0.163,0.106,0.243c0.02,0.04,0.042,0.079,0.064,0.118c0.089,0.155,0.196,0.3,0.314,0.426
					c0.119,0.126,0.248,0.233,0.385,0.312l18.339,10.588c0.359,0.207,0.694,0.174,0.869-0.087c0.176-0.258,0.165-0.709-0.025-1.171
					l-4.93-11.971c-0.18-0.439-0.498-0.824-0.838-1.02L21.919,8.046c-0.546-0.315-0.992-0.064-0.993,0.566L20.9,17.726
					c0,0,0,0.001,0,0.001V17.726z M22.905,10.894l11.839,6.835l3.698,8.981l-15.556-8.981L22.905,10.894L22.905,10.894z"/><polygon fill="#0061cd" points="41.533 28.495 41.07 28.764 40.781 28.061 40.625 27.684 40.541 27.478 39.88 25.875 38.442 26.711 23.856 18.29 21.887 19.434 40.225 30.023 42.195 28.878"/><path fill="#81cbcd" d="M24.875,15.457c0.329-0.191,0.657-0.382,0.986-0.573c-0.272-0.154-0.518-0.168-0.696-0.064
					C24.987,14.923,24.876,15.143,24.875,15.457z M25.865,17.167c0.657-0.382,1.313-0.763,1.97-1.145l-1.963-1.133
					c-0.004-0.002-0.007-0.003-0.01-0.005c-0.329,0.191-0.657,0.382-0.985,0.572c0,0,0,0,0,0c-0.001,0-0.001,0-0.001,0c0,0,0,0,0,0
					C24.873,16.083,25.316,16.851,25.865,17.167z"/><path fill="#0061cd" d="M78.787,92.023l-6.766,3.932c0.177-0.103,0.287-0.322,0.288-0.634l6.766-3.932
					C79.074,91.701,78.964,91.92,78.787,92.023z"/><polygon fill="#0061cd" points="72.325 89.627 79.091 85.694 79.075 91.389 72.309 95.321"/><path fill="#0061cd" d="M71.335,87.912l6.766-3.932c0.549,0.316,0.991,1.084,0.99,1.714l-6.766,3.932
					C72.326,88.996,71.884,88.229,71.335,87.912z"/><path fill="#81cbcd" d="M34.744,17.729l3.698,8.981l-15.556-8.981l0.019-6.835L34.744,17.729z M33.135,21.364
					c0.545,0.315,0.991,0.061,0.993-0.566c0.001-0.63-0.441-1.397-0.987-1.712l-7.269-4.197c-0.549-0.317-0.994-0.063-0.996,0.568
					c-0.002,0.627,0.441,1.394,0.99,1.711L33.135,21.364L33.135,21.364z"/><path fill="#0061cd" d="M33.141 19.086c.546.315.988 1.082.987 1.712-.002.627-.448.881-.993.566l-7.27-4.197c-.549-.317-.991-1.084-.99-1.711.002-.63.448-.884.996-.568L33.141 19.086zM78.814 81.775l-6.766 3.932c.179-.104.289-.324.29-.637l6.766-3.932C79.103 81.451 78.993 81.671 78.814 81.775z"/><path fill="#cd8600" d="M53.567,51.414c0.549,0.317,0.992,1.084,0.99,1.715c-0.002,0.626-0.448,0.881-0.996,0.564
					l-4.956-2.861c-0.549-0.316-0.989-1.082-0.987-1.709c0.002-0.63,0.444-0.886,0.993-0.569L53.567,51.414z"/><polygon fill="#0061cd" points="21.919 8.046 28.685 4.114 42.069 11.841 35.302 15.773"/><path fill="#cd8600" d="M67.427 65.124c.549.316.992 1.08.99 1.711-.002.63-.447.881-.996.564l-2.973-1.717c-.549-.316-.989-1.079-.987-1.709.002-.63.444-.883.993-.566L67.427 65.124zM52.609 39.455c.546.315.988 1.082.987 1.709-.002.63-.448.884-.993.569l-3.966-2.29c-.549-.317-.988-1.082-.987-1.712.002-.627.444-.883.993-.566L52.609 39.455zM67.444 59.426c.549.317.991 1.084.99 1.715-.002.626-.448.881-.996.564l-.99-.572c-.549-.316-.988-1.082-.986-1.709.001-.63.444-.886.993-.569L67.444 59.426z"/><path fill="#0061cd" d="M59.574,34.347c0.545,0.315,0.988,1.078,0.986,1.712c-0.002,0.63-0.447,0.881-0.993,0.566
					c-0.551-0.318-0.991-1.081-0.99-1.711C58.579,34.281,59.022,34.028,59.574,34.347z"/><path fill="#cdcdcd" d="M37.082,19.079l33.402,19.284l-0.02,6.835L40.781,28.061L37.082,19.079z M63.533,38.915
					c0.542,0.313,0.991,0.064,0.993-0.566c0.002-0.634-0.444-1.399-0.987-1.713c-0.545-0.315-0.994-0.066-0.996,0.568
					C62.541,37.834,62.987,38.6,63.533,38.915L63.533,38.915z M67.495,41.202c0.546,0.315,0.995,0.066,0.996-0.564
					c0.001-0.634-0.445-1.399-0.99-1.714c-0.546-0.315-0.991-0.065-0.993,0.569C66.507,40.124,66.95,40.887,67.495,41.202
					L67.495,41.202z M59.567,36.625c0.546,0.315,0.991,0.064,0.993-0.566c0.002-0.634-0.441-1.397-0.986-1.712
					c-0.552-0.319-0.995-0.066-0.997,0.567C58.576,35.544,59.015,36.307,59.567,36.625L59.567,36.625z"/><path fill="#0061cd" d="M63.539,36.636c0.543,0.313,0.989,1.079,0.987,1.713c-0.002,0.63-0.451,0.879-0.993,0.566
					c-0.545-0.315-0.992-1.081-0.99-1.711C62.545,36.57,62.994,36.321,63.539,36.636z"/><g><path fill="#fff8aa" d="M33.297,30.528c3.552,2.05,6.432,7.04,6.421,11.121c-0.008,2.891-1.499,4.68-3.794,4.557
					c-0.353-0.017-0.581,0.257-0.582,0.704L35.29,65.028l-1.261,1.794l-2.469-3.923l0.654-1.114
					c0.142-0.239,0.143-0.616,0.003-1.018l-0.667-1.934l1.482-0.844c0.188-0.103,0.293-0.335,0.293-0.635l0.007-2.278
					c0.001-0.324-0.118-0.699-0.325-1.034l-1.72-2.792l1.028-3.276c0.068-0.211,0.057-0.482-0.025-0.769l-0.075-0.263
					c0.341,0.244,0.686,0.467,1.035,0.669c0.545,0.315,0.991,0.064,0.993-0.566c0.001-0.63-0.442-1.394-0.987-1.709
					c-0.79-0.456-1.55-1.054-2.268-1.784c-2.511-2.563-4.164-6.3-4.155-9.343C26.843,30.127,29.745,28.476,33.297,30.528z
					 M36.739,41.068c0.549,0.316,0.995,0.062,0.996-0.565c0.008-2.828-1.986-6.283-4.447-7.703
					c-2.458-1.419-4.466-0.275-4.474,2.553c-0.002,0.627,0.441,1.394,0.986,1.709L36.739,41.068L36.739,41.068z"/><path fill="#ffb827" d="M30.583,43.22c0.119,0.069,0.241,0.165,0.36,0.286c0.014,0.015,0.029,0.03,0.044,0.045
					c0.719,0.73,1.479,1.328,2.268,1.784c0.546,0.315,0.988,1.079,0.987,1.709c-0.002,0.63-0.448,0.881-0.993,0.566
					c-0.349-0.202-0.695-0.425-1.035-0.669c-0.686-0.492-1.354-1.069-1.994-1.725c-0.511-0.525-0.76-1.332-0.56-1.801
					C29.814,43.052,30.188,42.992,30.583,43.22z"/><path fill="#fff" d="M33.281,35.079c1.015,0.586,1.886,1.794,2.266,3.019l-4.542-2.622
					C31.391,34.694,32.27,34.495,33.281,35.079z"/><path fill="#ffb827" d="M33.304 28.249c4.646 2.682 8.413 9.206 8.397 14.544-.01 3.532-1.711 5.806-4.382 5.96l-.05 17.72c-.001.201-.044.37-.131.493l-1.994 2.842c-.148.211-.406.266-.698.154-.055-.021-.11-.046-.166-.078-.239-.138-.468-.37-.652-.659l-3.954-6.275c-.337-.536-.433-1.156-.229-1.501l.774-1.327-.765-2.212c-.189-.546-.114-1.036.191-1.206l1.697-.967.004-1.303-1.861-3.014c-.281-.458-.39-.98-.278-1.339l1.109-3.539-.505-1.755c-2.996-3.278-4.975-7.916-4.964-11.723C24.864 27.725 28.658 25.567 33.304 28.249zM35.924 46.206c2.295.122 3.786-1.666 3.794-4.557.012-4.082-2.869-9.071-6.42-11.121-3.552-2.051-6.455-.4-6.466 3.681-.009 3.043 1.644 6.78 4.108 9.292-.115-.116-.237-.212-.356-.281-.396-.228-.769-.168-.924.194-.201.47.049 1.277.56 1.801.64.657 1.308 1.234 1.994 1.725l.075.263c.082.287.094.559.025.769l-1.028 3.276 1.72 2.792c.208.335.326.71.325 1.034l-.006 2.278c-.001.299-.106.532-.294.635l-1.482.844.667 1.934c.14.402.139.779-.003 1.018l-.654 1.114 2.469 3.923 1.261-1.794.051-18.118C35.342 46.463 35.57 46.188 35.924 46.206L35.924 46.206zM58.497 71.316c.549.316.992 1.084.99 1.711-.002.63-.448.884-.996.567l-9.911-5.722c-.549-.317-.989-1.082-.987-1.712.002-.627.444-.883.993-.566L58.497 71.316zM54.55 63.334c.546.315.989 1.082.987 1.709-.002.631-.448.885-.993.57l-5.949-3.434c-.549-.317-.988-1.082-.986-1.713.001-.626.444-.883.993-.566L54.55 63.334zM66.428 75.895c.548.317.988 1.082.986 1.709-.002.63-.445.886-.993.569l-3.966-2.29c-.545-.315-.988-1.082-.986-1.712.002-.627.447-.881.993-.566L66.428 75.895zM61.505 61.646c.545.315.988 1.078.986 1.709-.001.63-.447.881-.993.566l-5.948-3.434c-.546-.315-.988-1.079-.987-1.709.002-.63.448-.881.993-.566L61.505 61.646zM67.434 70.772c.549.317.992 1.084.99 1.711-.001.63-.447.884-.996.568L58.507 67.9c-.545-.315-.988-1.082-.986-1.713.001-.626.447-.881.993-.566L67.434 70.772zM67.45 65.078c.549.317.992 1.08.99 1.711-.002.63-.448.881-.996.564l-2.973-1.716c-.549-.317-.989-1.079-.987-1.709.002-.63.444-.883.993-.566L67.45 65.078zM58.068 48.25c.545.315.988 1.082.986 1.713-.002.627-.447.881-.993.566l-9.418-5.437c-.549-.317-.988-1.082-.986-1.709.001-.63.444-.886.993-.569L58.068 48.25zM62.543 45.131c.549.317.992 1.084.99 1.711-.002.63-.448.884-.996.568l-5.946-3.433c-.549-.316-.991-1.084-.99-1.714.002-.627.448-.881.996-.564L62.543 45.131z"/><path fill="#fff" d="M70.378,83.879c-0.002,0.63,0.441,1.398,0.986,1.713l-0.006,2.275
					c-0.546-0.315-0.992-0.061-0.993,0.569l-0.013,4.557L22.773,65.523l0.129-45.561l47.579,27.469L70.378,83.879z M37.319,48.754
					c2.671-0.155,4.372-2.428,4.382-5.96c0.015-5.339-3.751-11.862-8.397-14.544s-8.44-0.524-8.455,4.815
					c-0.011,3.807,1.969,8.445,4.964,11.723l0.505,1.755l-1.109,3.539c-0.112,0.359-0.002,0.881,0.278,1.339l1.861,3.014
					l-0.004,1.303l-1.697,0.967c-0.305,0.17-0.38,0.66-0.191,1.206l0.765,2.212l-0.775,1.327c-0.204,0.345-0.107,0.965,0.229,1.501
					l3.954,6.275c0.183,0.29,0.413,0.521,0.652,0.659c0.055,0.032,0.11,0.057,0.166,0.078c0.291,0.112,0.549,0.056,0.698-0.154
					l1.994-2.842c0.086-0.123,0.13-0.292,0.13-0.493L37.319,48.754L37.319,48.754z M45.581,75.266l0.11-38.726
					c0.002-0.627-0.441-1.394-0.99-1.711c-0.545-0.315-0.991-0.061-0.993,0.566l-0.11,38.726c-0.002,0.63,0.441,1.398,0.986,1.713
					C45.133,76.151,45.579,75.896,45.581,75.266L45.581,75.266z M58.491,73.594c0.548,0.317,0.994,0.063,0.996-0.567
					c0.002-0.627-0.441-1.394-0.99-1.711l-9.911-5.723c-0.549-0.316-0.991-0.061-0.993,0.566c-0.002,0.63,0.438,1.395,0.987,1.712
					L58.491,73.594L58.491,73.594z M48.651,42.813c-0.549-0.317-0.992-0.061-0.993,0.569c-0.002,0.627,0.438,1.392,0.986,1.709
					l9.418,5.437c0.546,0.315,0.991,0.061,0.993-0.566c0.002-0.63-0.441-1.397-0.986-1.713L48.651,42.813L48.651,42.813z
					 M67.428,73.051c0.549,0.316,0.995,0.062,0.996-0.568c0.002-0.627-0.441-1.394-0.99-1.711l-8.921-5.151
					c-0.546-0.315-0.992-0.061-0.993,0.566c-0.002,0.631,0.441,1.398,0.986,1.713L67.428,73.051L67.428,73.051z M56.598,41.698
					c-0.549-0.317-0.995-0.063-0.996,0.564c-0.001,0.63,0.441,1.397,0.99,1.714l5.946,3.433c0.548,0.316,0.994,0.062,0.996-0.568
					c0.002-0.627-0.441-1.394-0.99-1.711L56.598,41.698L56.598,41.698z M48.602,59.899c-0.549-0.317-0.992-0.06-0.993,0.566
					c-0.002,0.631,0.438,1.396,0.986,1.713l5.949,3.434c0.545,0.315,0.991,0.061,0.993-0.569c0.002-0.627-0.441-1.394-0.987-1.709
					L48.602,59.899L48.602,59.899z M62.492,63.354c0.002-0.63-0.441-1.394-0.986-1.709l-5.949-3.434
					c-0.545-0.315-0.991-0.064-0.993,0.566c-0.001,0.63,0.441,1.394,0.987,1.709l5.948,3.434
					C62.044,64.235,62.49,63.985,62.492,63.354L62.492,63.354z M67.476,55.964c0.549,0.317,0.995,0.063,0.996-0.564
					c0.002-0.63-0.441-1.398-0.99-1.715l-5.452-3.147c-0.545-0.315-0.991-0.061-0.993,0.569c-0.002,0.627,0.441,1.394,0.987,1.709
					L67.476,55.964L67.476,55.964z M48.634,48.507c-0.549-0.317-0.991-0.061-0.993,0.569c-0.002,0.627,0.438,1.393,0.987,1.709
					l4.955,2.861c0.548,0.317,0.994,0.063,0.996-0.564c0.002-0.63-0.441-1.398-0.99-1.715L48.634,48.507L48.634,48.507z
					 M66.422,78.173c0.549,0.317,0.991,0.061,0.993-0.569c0.002-0.627-0.438-1.392-0.986-1.709l-3.966-2.289
					c-0.546-0.315-0.991-0.061-0.993,0.566c-0.002,0.63,0.441,1.397,0.986,1.712L66.422,78.173L66.422,78.173z M61.515,58.226
					c0.545,0.315,0.991,0.061,0.993-0.566c0.002-0.63-0.441-1.398-0.987-1.713l-3.965-2.29c-0.549-0.317-0.992-0.06-0.993,0.57
					c-0.002,0.627,0.438,1.392,0.986,1.709L61.515,58.226L61.515,58.226z M48.667,37.119c-0.549-0.317-0.991-0.061-0.993,0.566
					c-0.001,0.63,0.438,1.396,0.987,1.712l3.966,2.29c0.545,0.315,0.991,0.061,0.993-0.569c0.001-0.627-0.442-1.394-0.987-1.709
					L48.667,37.119L48.667,37.119z M48.618,54.205c-0.549-0.317-0.991-0.064-0.993,0.566c-0.001,0.631,0.438,1.392,0.987,1.709
					l2.973,1.716c0.549,0.317,0.994,0.066,0.996-0.564c0.002-0.63-0.441-1.394-0.99-1.711L48.618,54.205L48.618,54.205z
					 M67.444,67.353c0.548,0.317,0.994,0.066,0.996-0.564c0.002-0.63-0.441-1.394-0.99-1.711l-2.973-1.717
					c-0.549-0.317-0.991-0.064-0.993,0.566c-0.002,0.63,0.438,1.393,0.986,1.709L67.444,67.353L67.444,67.353z M67.492,50.27
					c0.549,0.317,0.994,0.063,0.996-0.568c0.002-0.627-0.441-1.394-0.99-1.711l-0.99-0.571c-0.549-0.317-0.992-0.061-0.993,0.566
					c-0.002,0.63,0.438,1.396,0.986,1.712L67.492,50.27L67.492,50.27z M67.46,61.658c0.549,0.317,0.995,0.063,0.996-0.564
					c0.001-0.63-0.441-1.398-0.99-1.714l-0.99-0.571c-0.548-0.317-0.991-0.061-0.993,0.569c-0.001,0.627,0.438,1.392,0.987,1.709
					L67.46,61.658L67.46,61.658z"/><path fill="#ffb827" d="M33.288,32.8c2.461,1.421,4.455,4.876,4.447,7.703c-0.001,0.627-0.447,0.881-0.996,0.565
					l-6.938-4.006c-0.545-0.315-0.988-1.082-0.986-1.709C28.822,32.526,30.83,31.382,33.288,32.8z M31.005,35.476l4.542,2.622
					c-0.38-1.225-1.251-2.434-2.266-3.019C32.27,34.495,31.391,34.694,31.005,35.476L31.005,35.476z"/><path fill="#b3fdff" d="M34.767,17.683l3.698,8.981l-15.556-8.981l0.019-6.835L34.767,17.683z M33.158,21.318
					c0.545,0.315,0.991,0.061,0.993-0.566c0.001-0.63-0.441-1.398-0.987-1.712l-7.269-4.197c-0.549-0.317-0.995-0.063-0.997,0.568
					c-0.001,0.627,0.441,1.394,0.99,1.711L33.158,21.318L33.158,21.318z"/><path fill="#1193ff" d="M33.164,19.04c0.546,0.315,0.988,1.082,0.987,1.712c-0.002,0.627-0.448,0.881-0.993,0.566
					l-7.27-4.197c-0.549-0.317-0.991-1.084-0.99-1.711c0.002-0.63,0.448-0.884,0.997-0.568L33.164,19.04z"/><path fill="#ffb827" d="M44.701,34.829c0.548,0.317,0.991,1.084,0.989,1.711l-0.11,38.726
					c-0.002,0.63-0.448,0.885-0.997,0.568c-0.545-0.315-0.988-1.082-0.986-1.713l0.11-38.726
					C43.71,34.768,44.155,34.514,44.701,34.829z"/><path fill="#1193ff" d="M71.503,36.614c0.549,0.316,0.992,1.08,0.99,1.711l-0.025,9.114
					c-0.002,0.626-0.448,0.88-0.996,0.564L40.248,29.976c0.359,0.207,0.694,0.174,0.869-0.087c0.176-0.258,0.165-0.709-0.024-1.171
					l-0.289-0.703l29.684,17.138l0.02-6.835L37.105,19.033l3.543,8.604l-4.485-10.891c-0.18-0.439-0.498-0.824-0.838-1.02
					L71.503,36.614z"/><path fill="#1193ff" d="M41.093,28.718c0.189,0.462,0.2,0.913,0.024,1.171c-0.176,0.262-0.511,0.294-0.869,0.087
					L21.909,19.389c-0.545-0.315-0.988-1.082-0.986-1.709l0.026-9.114C20.95,7.936,21.396,7.685,21.942,8l13.383,7.727
					c0.34,0.196,0.658,0.581,0.838,1.02L41.093,28.718z M22.909,17.684l15.556,8.981l-3.698-8.981l-11.839-6.835L22.909,17.684
					L22.909,17.684z"/><path fill="#ffb827" d="M61.521 55.947c.545.315.988 1.082.986 1.713-.002.627-.447.881-.993.566l-3.966-2.29c-.549-.317-.988-1.082-.986-1.709.001-.63.444-.887.993-.57L61.521 55.947zM67.467 59.38c.549.317.991 1.084.99 1.714-.002.627-.448.881-.996.564l-.99-.572c-.549-.316-.988-1.082-.986-1.709.001-.63.444-.886.993-.569L67.467 59.38z"/><path fill="#fff" d="M37.105,19.033l33.402,19.284l-0.02,6.835L40.804,28.015L37.105,19.033z M63.556,38.868
					c0.542,0.313,0.991,0.064,0.993-0.566c0.002-0.634-0.444-1.399-0.987-1.712c-0.545-0.315-0.994-0.066-0.996,0.567
					C62.564,37.788,63.01,38.554,63.556,38.868L63.556,38.868z M67.518,41.156c0.546,0.315,0.995,0.066,0.997-0.564
					c0.001-0.634-0.445-1.399-0.99-1.714c-0.546-0.315-0.991-0.065-0.993,0.569C66.53,40.078,66.973,40.841,67.518,41.156
					L67.518,41.156z M59.59,36.579c0.546,0.315,0.991,0.064,0.993-0.566c0.002-0.634-0.441-1.397-0.986-1.712
					c-0.552-0.319-0.994-0.066-0.996,0.567C58.599,35.498,59.038,36.261,59.59,36.579L59.59,36.579z"/><path fill="#1193ff" d="M59.597 34.301c.545.315.988 1.079.986 1.712-.002.63-.447.881-.993.566-.552-.318-.991-1.08-.99-1.711C58.602 34.235 59.045 33.982 59.597 34.301zM63.562 36.59c.542.313.989 1.079.987 1.712-.002.63-.451.879-.993.566-.545-.315-.992-1.081-.99-1.711C62.568 36.524 63.017 36.275 63.562 36.59zM72.467 47.438l-.107 37.585c-.002.631-.448.885-.996.568-.545-.315-.988-1.082-.986-1.713l.103-36.447L22.903 19.962l-.129 45.561 47.579 27.469.013-4.557c.002-.63.447-.885.993-.57.549.317.991 1.084.99 1.715l-.016 5.694c-.002.63-.447.881-.996.564L21.774 67.225c-.545-.315-.988-1.078-.987-1.709l.136-47.836c-.002.627.441 1.394.987 1.709l18.338 10.588 31.223 18.026C72.02 48.319 72.465 48.065 72.467 47.438zM67.525 38.878c.545.315.991 1.08.99 1.714-.002.63-.451.879-.997.564-.545-.315-.988-1.079-.986-1.709C66.534 38.813 66.979 38.563 67.525 38.878z"/></g><path fill="#ffb827" d="M67.483 53.686c.549.317.992 1.084.99 1.715-.001.627-.447.881-.996.564l-5.452-3.148c-.546-.315-.989-1.082-.987-1.709.002-.63.448-.884.993-.569L67.483 53.686zM67.499 47.991c.549.317.992 1.084.99 1.711-.002.631-.448.885-.996.568l-.99-.572c-.549-.316-.988-1.082-.986-1.712.002-.627.445-.883.993-.566L67.499 47.991zM52.632 39.409c.545.315.988 1.082.987 1.709-.002.63-.448.884-.993.569l-3.966-2.29c-.549-.316-.988-1.082-.987-1.712.002-.627.444-.883.993-.566L52.632 39.409zM51.591 55.922c.549.317.992 1.08.99 1.711-.002.63-.447.881-.996.564l-2.973-1.716c-.549-.317-.988-1.079-.987-1.709.002-.63.444-.883.993-.566L51.591 55.922zM53.59 51.368c.549.317.992 1.084.99 1.715-.002.627-.448.881-.996.564l-4.955-2.861c-.549-.316-.989-1.082-.987-1.709.002-.63.444-.886.993-.569L53.59 51.368z"/></svg>