<?xml version="1.0" encoding="utf-8"?>
<!-- Generator: Adobe Illustrator 25.4.1, SVG Export Plug-In . SVG Version: 6.00 Build 0)  -->
<svg version="1.1" id="Layer_1" xmlns="http://www.w3.org/2000/svg" xmlns:xlink="http://www.w3.org/1999/xlink" x="0px" y="0px"
	 viewBox="0 0 128 128" style="enable-background:new 0 0 128 128;" xml:space="preserve">
<style type="text/css">
	.st0{fill:#81D9E3;}
	.st1{fill:#FFDB80;}
	.st2{opacity:0.3;fill:#0F423C;enable-background:new    ;}
	.st3{opacity:0.5;fill:#BDDEE0;enable-background:new    ;}
	.st4{opacity:0.5;fill:#F9EDD2;enable-background:new    ;}
	.st5{opacity:0.5;fill:#937D4A;enable-background:new    ;}
	.st6{fill:#2D4356;}
	.st7{fill:#2D4356;stroke:#2D4356;stroke-width:3;stroke-miterlimit:10;}
	.st8{fill:#2D4356;stroke:#2D4356;stroke-width:0.75;stroke-miterlimit:10;}
</style>
<path class="st0" d="M74.9,39.1c0,0-13.3-19.7-37.7-5c0,0-10.3,6.7-10,23c0,0-27.2,6-25.2,27.2c2.9,30.9,28.2,26.5,42.3,26.2
	s59,0,59,0s33.3-8.6,17.7-42.1S74.9,39.1,74.9,39.1z"/>
<circle class="st1" cx="102.1" cy="45.1" r="23.9"/>
<path class="st2" d="M53,48.1c2.4-0.3,4.9,0.3,6.8,1.8c0.9,0.7,2.1,0.5,2.8-0.4s0.5-2.1-0.4-2.8c-2.8-2-6.3-2.9-9.7-2.5
	c-5.3,0.6-9.8,4.4-11.1,9.6c-0.4,1.5-0.5,3-0.2,4.6c0.1,1,1,1.7,2,1.7c0.1,0,0.2,0,0.3,0c1.1-0.1,1.9-1.2,1.7-2.2c0,0,0,0,0,0
	c-0.1-1-0.1-2.1,0.2-3.1C46.2,51.1,49.3,48.5,53,48.1z M103.3,96.1c-1,0.4-1.6,1.5-1.2,2.5s1.5,1.6,2.5,1.2l0,0
	c3-1.1,5.5-3.1,7.2-5.8c2.8-4.4,2.9-9.6,0.3-13.3c-0.6-0.9-1.9-1.1-2.8-0.5c-0.9,0.6-1.1,1.9-0.5,2.8c1.6,2.3,1.5,5.8-0.4,8.8
	C107.3,93.9,105.5,95.3,103.3,96.1z"/>
<path class="st3" d="M73.8,38.8c-0.5,1.5-0.9,2.9-1.2,4.5c-9.2-10.3-25-11.1-35.3-1.9c-5.1,4.6-8.1,11-8.3,17.9l-0.1,3.4l-3.3,0.5
	C13.9,64.8,5,74.3,4.1,85.9C4,85.3,4,84.6,4,83.9c0-12.5,9.2-23,21.5-24.8l3.3-0.5l0.1-3.4c0.3-13,10.6-23.5,23.5-24.2
	c0.5,0,1,0,1.5,0c7.1,0,13.8,3,18.6,8.3c0.1-0.4,0.2-0.9,0.3-1.3C73.2,38.3,73.5,38.5,73.8,38.8z"/>
<path class="st4" d="M124,45c0,0.7,0,1.3-0.1,2c-1.1-12.1-11.8-21-23.9-19.9c-10.6,1-18.9,9.3-19.9,19.9C80,46.3,80,45.7,80,45
	c0-11.7,9.2-21.4,20.9-22c0.4,0,0.8,0,1.1,0s0.8,0,1.1,0C114.8,23.6,124,33.3,124,45z"/>
<path class="st2" d="M124,83.9c0,13.3-10.4,24.3-23.7,25c-0.4,0-0.9,0-1.4,0H29c-0.5,0-0.9,0-1.4,0C14.4,108.2,4,97.2,4,83.9
	c0-0.7,0-1.3,0.1-2c1,13,11.9,23,25,23.1H99c13.1,0,23.9-10.1,24.9-23.1C124,82.6,124,83.2,124,83.9z"/>
<path class="st5" d="M124,45c0,11.7-9.2,21.4-20.9,22c-0.4,0-0.8,0-1.1,0s-0.8,0-1.1,0C89.2,66.4,80,56.7,80,45c0-0.7,0-1.3,0.1-2
	c1.1,12.1,11.8,21,23.9,19.9c10.6-1,18.9-9.3,19.9-19.9C124,43.7,124,44.3,124,45z"/>
<path class="st6" d="M119.4,69.4c8,11.3,5.4,26.9-5.9,34.9c-4.2,3-9.3,4.6-14.5,4.6H29C15.2,109,4,97.7,4,83.9
	c0-12.5,9.2-23,21.5-24.8l3.3-0.5l0.1-3.4C29.4,41.5,40.9,30.6,54.7,31c6.8,0.2,13.3,3.2,17.9,8.3c0.3-1.5,0.7-3,1.2-4.5
	c-11.7-10.9-30.1-10.3-41,1.4c-4.8,5.2-7.6,11.9-7.8,19C9.1,57.4-2,72.1,0.3,88c2,14.3,14.3,24.9,28.7,25H99c16,0,29-13,29-29.1
	c0-6.1-1.9-12.1-5.5-17C121.5,67.8,120.5,68.7,119.4,69.4z"/>
<path class="st6" d="M102,71c14.4,0,26-11.6,26-26s-11.6-26-26-26S76,30.6,76,45C76,59.4,87.6,71,102,71z M102,23
	c12.2,0,22,9.8,22,22s-9.8,22-22,22s-22-9.8-22-22C80,32.9,89.9,23,102,23z"/>
<path class="st6" d="M167.9,28.6c0.8,0.8,2,0.8,2.8,0c0,0,0,0,0,0l4.6-4.6l4.6,4.6c0.8,0.8,2,0.8,2.8,0c0.8-0.8,0.8-2,0-2.8l0,0
	l-4.6-4.6l4.6-4.6c0.8-0.8,0.8-2,0-2.8c-0.8-0.8-2-0.8-2.8,0l-4.6,4.6l-4.6-4.6c-0.8-0.8-2-0.8-2.8,0c-0.8,0.8-0.8,2,0,2.8l4.6,4.6
	l-4.6,4.6C167.1,26.6,167.1,27.8,167.9,28.6C167.9,28.6,167.9,28.6,167.9,28.6z M53,46.1c2.4-0.3,4.9,0.3,6.8,1.8
	c0.9,0.7,2.1,0.5,2.8-0.4s0.5-2.1-0.4-2.8c-2.8-2-6.3-2.9-9.7-2.5c-5.3,0.6-9.8,4.4-11.1,9.6c-0.4,1.5-0.5,3-0.2,4.6
	c0.1,1,1,1.7,2,1.7c0.1,0,0.2,0,0.3,0c1.1-0.1,1.9-1.2,1.7-2.2c0,0,0,0,0,0c-0.1-1-0.1-2.1,0.2-3.1C46.2,49.1,49.3,46.5,53,46.1z
	 M104,98c-1.1,0-2-0.9-2-2c0-0.9,0.5-1.6,1.3-1.9c2.1-0.8,3.9-2.2,5.1-4.1c1.9-3,2.1-6.5,0.4-8.8c-0.6-0.9-0.4-2.2,0.5-2.8
	c0.9-0.6,2.1-0.4,2.8,0.5c2.6,3.7,2.5,8.9-0.3,13.3c-1.7,2.7-4.2,4.7-7.2,5.8C104.4,98,104.2,98,104,98z"/>
<g>
	<g>
		<line class="st7" x1="96.8" y1="35.6" x2="96.8" y2="54.6"/>
		<ellipse class="st8" cx="96.8" cy="35.6" rx="1.1" ry="0.9"/>
		<ellipse class="st8" cx="96.8" cy="54.5" rx="1.1" ry="0.9"/>
	</g>
	<g>
		<line class="st7" x1="107.4" y1="35.7" x2="107.4" y2="54.7"/>
		<ellipse class="st8" cx="107.4" cy="35.7" rx="1.1" ry="0.9"/>
		<ellipse class="st8" cx="107.4" cy="54.6" rx="1.1" ry="0.9"/>
	</g>
</g>
</svg>
