<svg xmlns="http://www.w3.org/2000/svg" id="Layer_1" x="0" y="0" enable-background="new 0 0 128 128" version="1.1" viewBox="0 0 128 128" xml:space="preserve"><path fill="#d88648" d="M87.2,119c-17.2,7.7-37.7,5.7-53.8-4.3C19.3,106,9.3,91.4,6.3,75.1C3.2,58.4,7.6,40.7,18.4,27.4  c10.5-13,26.3-21.1,43-22c2.3-0.1,4.6-0.1,7,0.1c-2.9,11.7,4.8,23.9,16.6,26.3c3.6,0.7,7.3,0.6,10.8-0.5c-0.4,4,1.4,8.4,3.7,11.5  c2.4,3.2,5.9,5.6,9.8,6.7c-2.1,8.8,5.3,17.2,14.3,16.5C123.4,67.2,123,102.9,87.2,119z"/><path fill="#e29854" d="M115.3,64.1v0.3c0,28.1-22.8,50.8-50.8,50.8c-28.1,0-50.8-22.8-50.8-50.8s22.8-50.8,50.8-50.8  c1.2,0,2.3,0,3.5,0.1c1.5,10.5,10.5,18.6,21.4,18.6c2.2,0,4.3-0.3,6.3-1c0,0.1,0,0.2,0,0.3c0,8.5,5.7,15.7,13.5,17.9  c-0.2,1-0.3,2-0.3,3.1C108.8,57.5,111.4,61.7,115.3,64.1z"/><path fill="#442617" d="M30.2 83.9c0 0-2.2 1.4-1.7 4.6s5.7 9 10.7 5.1 1.6-9.7-2.3-10.2S31.2 82.9 30.2 83.9zM47.6 73.4c.7 1.2 4.1 3.7 8.5 3 4.3-.7 2.9-8.4-1-10.2-3.9-1.9-6.9-.3-7.4 1.3S46.3 70.9 47.6 73.4zM60.8 97.9c-1.8.5-5 2.8-3.8 6.4 1.1 3.6 4.8 5.7 8.1 2C68.3 102.6 67.4 96.2 60.8 97.9zM70.1 80c0 1.5 2.6 3.7 8.1 3.2s2.6-7.7 0-8.4C75.6 74.1 69.9 72.3 70.1 80zM95.4 83.7c-1.9-.3-6.2.9-7.1 4.7-.9 3.7.3 7.2 4.6 7.6 4.2.3 5.7-2.9 5.8-5.5C98.7 87.9 99.9 84.4 95.4 83.7zM97.5 65.3c-1 2.6 4 6.8 8 3.8 3.9-3 2.5-6.7 1-8.2S100 58.9 97.5 65.3zM64.5 49.5c.2 2.2 3.7 5.1 7.9 3.6s2.7-7.9 1.7-8.9C73 43.2 63.9 42.3 64.5 49.5zM37.2 38.3c1.3 1.5 5.4 5.9 10.2 1.1s0-8.6-1.9-9.5c-1.9-.9-6.2-2.8-7.9.6S35.9 36.8 37.2 38.3zM27.5 61.7c4.3-.8 2.6-9.2 1.8-10.1s-5.2-1.6-7.6 3S23.2 62.5 27.5 61.7z"/><path fill="none" stroke="#31352e" stroke-linecap="round" stroke-linejoin="round" stroke-miterlimit="10" stroke-width="6" d="M87.2,119c-17.2,7.7-37.7,5.7-53.8-4.3C19.3,106,9.3,91.4,6.3,75.1C3.2,58.4,7.6,40.7,18.4,27.4  c10.5-13,26.3-21.1,43-22c2.3-0.1,4.6-0.1,7,0.1c-2.9,11.7,4.8,23.9,16.6,26.3c3.6,0.7,7.3,0.6,10.8-0.5c-0.4,4,1.4,8.4,3.7,11.5  c2.4,3.2,5.9,5.6,9.8,6.7c-2.1,8.8,5.3,17.2,14.3,16.5C123.4,67.2,123,102.9,87.2,119z"/></svg>