<svg xmlns="http://www.w3.org/2000/svg" enable-background="new 0 0 64 64" viewBox="0 0 64 64"><path d="M38,34h3c0.431,0,0.812-0.275,0.949-0.684L42.721,31H45v-2h-2.838c-2.323,0-4.376,1.48-5.111,3.684  c-0.102,0.306-0.05,0.641,0.138,0.901S37.679,34,38,34z M40.46,31.457L40.279,32h-0.521C39.967,31.789,40.204,31.606,40.46,31.457z"/><path d="M13.341,7.247c-0.086,0.075-0.153,0.164-0.207,0.258l-0.002-0.001l-0.008,0.015c0,0,0,0,0,0l-3.991,6.985  c-0.141,0.247-0.17,0.542-0.081,0.812l3.805,11.414l-2.563,2.563c-0.252,0.252-0.351,0.62-0.259,0.965l4,15  c0.091,0.34,0.354,0.607,0.691,0.704l6.647,1.898l5.796,8.694C27.354,56.833,27.666,57,28,57h8c0.334,0,0.646-0.167,0.832-0.445  l5.796-8.694l6.647-1.898c0.338-0.097,0.601-0.364,0.691-0.704l4-15c0.092-0.345-0.007-0.713-0.259-0.965l-2.563-2.563l3.805-11.414  c0.09-0.271,0.061-0.565-0.081-0.812l-3.991-6.985c0,0,0-0.001-0.001-0.001l-0.008-0.014l-0.002,0.001  c-0.054-0.095-0.122-0.183-0.207-0.258c-0.361-0.315-0.896-0.331-1.272-0.036L40.657,14H23.343l-8.729-6.789  C14.237,6.917,13.703,6.932,13.341,7.247z M11.09,15.108L14.009,10l5.739,9.838l-5.311,5.311L11.09,15.108z M49.563,25.149  l-5.311-5.311L49.991,10l2.919,5.109L49.563,25.149z M22.386,15.789C22.562,15.926,22.778,16,23,16h18  c0.222,0,0.438-0.074,0.614-0.211l4.914-3.822l-4.392,7.529c-0.229,0.393-0.165,0.89,0.157,1.211l9.592,9.593L48.18,44.194  l-6.455,1.844c-0.228,0.065-0.425,0.21-0.557,0.407L35.465,55h-6.93l-5.703-8.555c-0.132-0.197-0.329-0.342-0.557-0.407  l-6.455-1.844L12.115,30.3l9.592-9.593c0.321-0.321,0.386-0.818,0.157-1.211l-4.392-7.529L22.386,15.789z"/><path d="M19 29v2h2.279l.772 2.316C22.188 33.725 22.569 34 23 34h3c.321 0 .623-.154.811-.415s.239-.596.138-.901C26.214 30.48 24.161 29 21.838 29H19zM24.242 32h-.521l-.181-.543C23.796 31.606 24.033 31.789 24.242 32zM27.03 48.242l1 4C28.141 52.688 28.541 53 29 53h6c.459 0 .859-.312.97-.758l1-4c.134-.535-.192-1.078-.728-1.212l-4-1c-.159-.041-.326-.041-.485 0l-4 1C27.222 47.164 26.896 47.707 27.03 48.242zM32 48.031l2.787.696L34.219 51h-4.438l-.568-2.272L32 48.031zM25.447 38.105l-2-1-.895 1.789 1.66.83 1.858 4.646 1.857-.742-2-5C25.837 38.401 25.667 38.215 25.447 38.105zM39.787 39.725l1.66-.83-.895-1.789-2 1c-.219.109-.39.296-.481.523l-2 5 1.857.742L39.787 39.725zM53.481 52.941l-1.433-1.395c-.45.461-.922.914-1.405 1.345l1.331 1.492C52.492 53.922 52.999 53.437 53.481 52.941zM47.568 55.277l1.114 1.66c.576-.386 1.145-.796 1.69-1.22l-1.226-1.58C48.638 54.532 48.106 54.916 47.568 55.277zM10.603 50.062c-.417-.493-.822-1.008-1.204-1.529l-1.614 1.182c.409.559.843 1.11 1.291 1.639L10.603 50.062zM7.322 45.241L5.56 46.187c.329.612.682 1.219 1.052 1.804l1.69-1.068C7.958 46.377 7.628 45.812 7.322 45.241zM37.146 61.561c.682-.118 1.368-.262 2.04-.426l-.477-1.943c-.627.154-1.268.288-1.904.398L37.146 61.561zM33.002 61.983c.696-.022 1.396-.069 2.078-.139l-.202-1.99c-.637.065-1.291.108-1.942.131L33.002 61.983zM40.579 58.661l.613 1.904c.658-.212 1.318-.45 1.963-.708L42.412 58C41.811 58.241 41.193 58.464 40.579 58.661zM45.065 59.013c.623-.302 1.244-.63 1.845-.975l-.995-1.734c-.562.322-1.141.628-1.722.91L45.065 59.013zM7.169 19.059l-1.772-.928c-.32.612-.623 1.245-.901 1.881l1.833.801C6.587 20.219 6.87 19.629 7.169 19.059zM3.098 23.938l1.927.537c.174-.623.372-1.247.587-1.854l-1.884-.67C3.497 22.602 3.285 23.271 3.098 23.938zM4 32c0-.598.019-1.19.056-1.779L2.06 30.096C2.02 30.726 2 31.361 2 32l0 .182 2-.018L4 32zM4.635 37.959l-1.954.424c.146.675.318 1.354.512 2.02l1.921-.559C4.933 39.223 4.772 38.589 4.635 37.959zM5.722 41.693l-1.876.691c.241.653.507 1.304.791 1.933l1.823-.822C6.195 42.909 5.947 42.303 5.722 41.693zM2.263 28.021l1.982.264c.085-.642.194-1.287.323-1.919l-1.959-.4C2.47 26.643 2.354 27.335 2.263 28.021zM4.078 34.111L2.084 34.26c.052.693.128 1.39.227 2.071l1.979-.287C4.198 35.408 4.126 34.758 4.078 34.111zM26.774 61.546l.347-1.969c-.636-.112-1.276-.248-1.903-.404l-.482 1.941C25.407 61.281 26.093 61.427 26.774 61.546zM56.864 19.119c.297.572.578 1.163.836 1.757l1.835-.795c-.276-.637-.578-1.271-.896-1.884L56.864 19.119zM61.748 28.099c-.089-.684-.204-1.376-.341-2.057l-1.961.395c.128.636.235 1.282.318 1.92L61.748 28.099zM58.412 22.688c.214.607.411 1.232.583 1.856l1.928-.533c-.185-.668-.395-1.338-.625-1.989L58.412 22.688zM55.663 46.976l1.689 1.07c.371-.585.725-1.189 1.054-1.797l-1.759-.951C56.34 45.864 56.009 46.43 55.663 46.976zM30.919 61.979l.069-1.998c-.646-.022-1.298-.068-1.94-.135l-.208 1.988C29.528 61.907 30.227 61.956 30.919 61.979zM59.699 36.119l1.979.291c.101-.686.179-1.383.232-2.071l-1.994-.152C59.866 34.828 59.793 35.479 59.699 36.119zM57.511 43.558l1.821.826c.286-.63.553-1.277.793-1.925l-1.874-.697C58.027 42.366 57.778 42.97 57.511 43.558zM59.949 30.295C59.982 30.858 60 31.428 60 31.994l-.001.25 2 .012L62 32c0-.613-.019-1.222-.055-1.826L59.949 30.295zM58.866 39.917l1.919.564c.195-.663.37-1.343.518-2.02l-1.953-.428C59.21 38.665 59.048 39.299 58.866 39.917zM53.358 50.107l1.525 1.293c.447-.526.881-1.076 1.292-1.634l-1.61-1.186C54.182 49.102 53.776 49.615 53.358 50.107zM11.978 54.342l1.334-1.49c-.479-.43-.951-.883-1.402-1.348l-1.436 1.393C10.958 53.395 11.463 53.881 11.978 54.342zM15.262 56.901l1.118-1.658c-.536-.361-1.065-.745-1.576-1.143l-1.229 1.578C14.122 56.104 14.689 56.515 15.262 56.901zM22.731 60.54l.617-1.902c-.617-.2-1.232-.424-1.827-.664l-.75 1.854C21.411 60.086 22.07 60.325 22.731 60.54zM18.871 58.981l.874-1.799c-.575-.279-1.152-.586-1.715-.911l-1 1.732C17.634 58.353 18.254 58.682 18.871 58.981zM31.018 2.017c-.665.021-1.323.064-1.977.128l.193 1.99c.61-.06 1.226-.1 1.847-.12L31.018 2.017zM19.517 4.715c-.602.275-1.193.57-1.772.884l.951 1.76c.541-.292 1.092-.567 1.654-.825L19.517 4.715zM23.219 3.307c-.634.194-1.259.408-1.875.643l.712 1.869c.574-.219 1.157-.419 1.748-.6L23.219 3.307zM32.997 2.017l-.063 1.998c.621.021 1.235.061 1.845.121l.197-1.99C34.322 2.081 33.662 2.037 32.997 2.017zM27.077 2.402c-.655.107-1.303.237-1.943.387l.455 1.947c.597-.14 1.202-.26 1.813-.361L27.077 2.402zM36.938 2.406l-.325 1.973c.611.102 1.215.222 1.812.362l.458-1.947C38.244 2.645 37.59 2.514 36.938 2.406zM45.316 7.364l.953-1.758c-.579-.314-1.17-.609-1.771-.886l-.836 1.816C44.223 6.796 44.775 7.071 45.316 7.364zM42.669 3.954c-.615-.234-1.24-.448-1.874-.644l-.588 1.912c.592.182 1.175.382 1.75.601L42.669 3.954z"/></svg>