<?xml version="1.0" encoding="utf-8"?>
<!-- Generator: Adobe Illustrator 25.4.1, SVG Export Plug-In . SVG Version: 6.00 Build 0)  -->
<svg version="1.1" id="Layer_1" xmlns="http://www.w3.org/2000/svg" xmlns:xlink="http://www.w3.org/1999/xlink" x="0px" y="0px"
	 viewBox="0 0 64 64" style="enable-background:new 0 0 64 64;" xml:space="preserve">
<style type="text/css">
	.st0{fill:#FFFFFF;}
</style>
<path class="st0" d="M38,34h3c0.4,0,0.8-0.3,0.9-0.7l0.8-2.3H45v-2h-2.8c-2.3,0-4.4,1.5-5.1,3.7c-0.1,0.3,0,0.6,0.1,0.9
	S37.7,34,38,34z M40.5,31.5L40.3,32h-0.5C40,31.8,40.2,31.6,40.5,31.5z"/>
<path class="st0" d="M13.3,7.2c-0.1,0.1-0.2,0.2-0.2,0.3l0,0l0,0l0,0l-4,7C9,14.8,9,15,9.1,15.3l3.8,11.4l-2.6,2.6
	c-0.3,0.3-0.4,0.6-0.3,1l4,15c0.1,0.3,0.4,0.6,0.7,0.7l6.6,1.9l5.8,8.7c0.2,0.3,0.5,0.4,0.8,0.4h8c0.3,0,0.6-0.2,0.8-0.4l5.8-8.7
	l6.6-1.9c0.3-0.1,0.6-0.4,0.7-0.7l4-15c0.1-0.3,0-0.7-0.3-1l-2.6-2.6l3.8-11.4c0.1-0.3,0.1-0.6-0.1-0.8l-4-7c0,0,0,0,0,0l0,0l0,0
	c-0.1-0.1-0.1-0.2-0.2-0.3c-0.4-0.3-0.9-0.3-1.3,0L40.7,14H23.3l-8.7-6.8C14.2,6.9,13.7,6.9,13.3,7.2z M11.1,15.1L14,10l5.7,9.8
	l-5.3,5.3L11.1,15.1z M49.6,25.1l-5.3-5.3L50,10l2.9,5.1L49.6,25.1z M22.4,15.8c0.2,0.1,0.4,0.2,0.6,0.2h18c0.2,0,0.4-0.1,0.6-0.2
	l4.9-3.8l-4.4,7.5c-0.2,0.4-0.2,0.9,0.2,1.2l9.6,9.6l-3.7,13.9L41.7,46c-0.2,0.1-0.4,0.2-0.6,0.4L35.5,55h-6.9l-5.7-8.6
	c-0.1-0.2-0.3-0.3-0.6-0.4l-6.5-1.8l-3.7-13.9l9.6-9.6c0.3-0.3,0.4-0.8,0.2-1.2L17.5,12L22.4,15.8z"/>
<path class="st0" d="M19,29v2h2.3l0.8,2.3c0.1,0.4,0.5,0.7,0.9,0.7h3c0.3,0,0.6-0.2,0.8-0.4s0.2-0.6,0.1-0.9
	c-0.7-2.2-2.8-3.7-5.1-3.7H19z M24.2,32h-0.5l-0.2-0.5C23.8,31.6,24,31.8,24.2,32z M27,48.2l1,4c0.1,0.4,0.5,0.8,1,0.8h6
	c0.5,0,0.9-0.3,1-0.8l1-4c0.1-0.5-0.2-1.1-0.7-1.2l-4-1c-0.2,0-0.3,0-0.5,0l-4,1C27.2,47.2,26.9,47.7,27,48.2z M32,48l2.8,0.7
	L34.2,51h-4.4l-0.6-2.3L32,48z M25.4,38.1l-2-1l-0.9,1.8l1.7,0.8l1.9,4.6l1.9-0.7l-2-5C25.8,38.4,25.7,38.2,25.4,38.1z M39.8,39.7
	l1.7-0.8l-0.9-1.8l-2,1c-0.2,0.1-0.4,0.3-0.5,0.5l-2,5l1.9,0.7L39.8,39.7z M53.5,52.9L52,51.5c-0.5,0.5-0.9,0.9-1.4,1.3l1.3,1.5
	C52.5,53.9,53,53.4,53.5,52.9z M47.6,55.3l1.1,1.7c0.6-0.4,1.1-0.8,1.7-1.2l-1.2-1.6C48.6,54.5,48.1,54.9,47.6,55.3z M10.6,50.1
	c-0.4-0.5-0.8-1-1.2-1.5l-1.6,1.2c0.4,0.6,0.8,1.1,1.3,1.6L10.6,50.1z M7.3,45.2l-1.8,0.9c0.3,0.6,0.7,1.2,1.1,1.8l1.7-1.1
	C8,46.4,7.6,45.8,7.3,45.2z M37.1,61.6c0.7-0.1,1.4-0.3,2-0.4l-0.5-1.9c-0.6,0.2-1.3,0.3-1.9,0.4L37.1,61.6z M33,62
	c0.7,0,1.4-0.1,2.1-0.1l-0.2-2c-0.6,0.1-1.3,0.1-1.9,0.1L33,62z M40.6,58.7l0.6,1.9c0.7-0.2,1.3-0.5,2-0.7L42.4,58
	C41.8,58.2,41.2,58.5,40.6,58.7z M45.1,59c0.6-0.3,1.2-0.6,1.8-1l-1-1.7c-0.6,0.3-1.1,0.6-1.7,0.9L45.1,59z M7.2,19.1l-1.8-0.9
	c-0.3,0.6-0.6,1.2-0.9,1.9l1.8,0.8C6.6,20.2,6.9,19.6,7.2,19.1z M3.1,23.9L5,24.5c0.2-0.6,0.4-1.2,0.6-1.9L3.7,22
	C3.5,22.6,3.3,23.3,3.1,23.9z M4,32c0-0.6,0-1.2,0.1-1.8l-2-0.1C2,30.7,2,31.4,2,32v0.2l2,0V32z M4.6,38l-2,0.4
	c0.1,0.7,0.3,1.4,0.5,2l1.9-0.6C4.9,39.2,4.8,38.6,4.6,38z M5.7,41.7l-1.9,0.7c0.2,0.7,0.5,1.3,0.8,1.9l1.8-0.8
	C6.2,42.9,5.9,42.3,5.7,41.7z M2.3,28l2,0.3c0.1-0.6,0.2-1.3,0.3-1.9l-2-0.4C2.5,26.6,2.4,27.3,2.3,28z M4.1,34.1l-2,0.1
	c0.1,0.7,0.1,1.4,0.2,2.1l2-0.3C4.2,35.4,4.1,34.8,4.1,34.1z M26.8,61.5l0.3-2c-0.6-0.1-1.3-0.2-1.9-0.4l-0.5,1.9
	C25.4,61.3,26.1,61.4,26.8,61.5z M56.9,19.1c0.3,0.6,0.6,1.2,0.8,1.8l1.8-0.8c-0.3-0.6-0.6-1.3-0.9-1.9L56.9,19.1z M61.7,28.1
	c-0.1-0.7-0.2-1.4-0.3-2.1l-2,0.4c0.1,0.6,0.2,1.3,0.3,1.9L61.7,28.1z M58.4,22.7c0.2,0.6,0.4,1.2,0.6,1.9l1.9-0.5
	c-0.2-0.7-0.4-1.3-0.6-2L58.4,22.7z M55.7,47l1.7,1.1c0.4-0.6,0.7-1.2,1.1-1.8l-1.8-1C56.3,45.9,56,46.4,55.7,47z M30.9,62l0.1-2
	c-0.6,0-1.3-0.1-1.9-0.1l-0.2,2C29.5,61.9,30.2,62,30.9,62z M59.7,36.1l2,0.3c0.1-0.7,0.2-1.4,0.2-2.1l-2-0.2
	C59.9,34.8,59.8,35.5,59.7,36.1z M57.5,43.6l1.8,0.8c0.3-0.6,0.6-1.3,0.8-1.9l-1.9-0.7C58,42.4,57.8,43,57.5,43.6z M59.9,30.3
	c0,0.6,0.1,1.1,0.1,1.7l0,0.2l2,0l0-0.3c0-0.6,0-1.2-0.1-1.8L59.9,30.3z M58.9,39.9l1.9,0.6c0.2-0.7,0.4-1.3,0.5-2l-2-0.4
	C59.2,38.7,59,39.3,58.9,39.9z M53.4,50.1l1.5,1.3c0.4-0.5,0.9-1.1,1.3-1.6l-1.6-1.2C54.2,49.1,53.8,49.6,53.4,50.1z M12,54.3
	l1.3-1.5c-0.5-0.4-1-0.9-1.4-1.3l-1.4,1.4C11,53.4,11.5,53.9,12,54.3z M15.3,56.9l1.1-1.7c-0.5-0.4-1.1-0.7-1.6-1.1l-1.2,1.6
	C14.1,56.1,14.7,56.5,15.3,56.9z M22.7,60.5l0.6-1.9c-0.6-0.2-1.2-0.4-1.8-0.7l-0.8,1.9C21.4,60.1,22.1,60.3,22.7,60.5z M18.9,59
	l0.9-1.8c-0.6-0.3-1.2-0.6-1.7-0.9L17,58C17.6,58.4,18.3,58.7,18.9,59z M31,2c-0.7,0-1.3,0.1-2,0.1l0.2,2C29.8,4.1,30.5,4,31.1,4
	L31,2z M19.5,4.7c-0.6,0.3-1.2,0.6-1.8,0.9l1,1.8c0.5-0.3,1.1-0.6,1.7-0.8L19.5,4.7z M23.2,3.3c-0.6,0.2-1.3,0.4-1.9,0.6l0.7,1.9
	c0.6-0.2,1.2-0.4,1.7-0.6L23.2,3.3z M33,2l-0.1,2c0.6,0,1.2,0.1,1.8,0.1l0.2-2C34.3,2.1,33.7,2,33,2z M27.1,2.4
	c-0.7,0.1-1.3,0.2-1.9,0.4l0.5,1.9c0.6-0.1,1.2-0.3,1.8-0.4L27.1,2.4z M36.9,2.4l-0.3,2c0.6,0.1,1.2,0.2,1.8,0.4l0.5-1.9
	C38.2,2.6,37.6,2.5,36.9,2.4z M45.3,7.4l1-1.8c-0.6-0.3-1.2-0.6-1.8-0.9l-0.8,1.8C44.2,6.8,44.8,7.1,45.3,7.4z M42.7,4
	c-0.6-0.2-1.2-0.4-1.9-0.6l-0.6,1.9c0.6,0.2,1.2,0.4,1.8,0.6L42.7,4z"/>
</svg>
